<?xml version="1.0" encoding="UTF-8"?>
<svg width="100px" height="100px" viewBox="0 0 100 100" version="1.1" xmlns="http://www.w3.org/2000/svg" xmlns:xlink="http://www.w3.org/1999/xlink">
    <title>图钉</title>
    <g id="钻井" stroke="none" stroke-width="1" fill="none" fill-rule="evenodd">
        <g id="实时曲线" transform="translate(-965.000000, -512.000000)" fill="#000000" fill-rule="nonzero">
            <g id="图钉" transform="translate(965.000000, 512.000000)">
                <rect id="矩形" opacity="0" x="0" y="0" width="100" height="100"></rect>
                <path d="M68.9532272,7.63597305 C69.2168733,7.63597305 69.4316962,7.63597305 69.8711063,8.06561855 C70.2616932,8.46597012 70.3007519,8.69055752 70.3007519,8.98349775 C70.3007519,9.28620254 70.2714578,9.50102529 69.8613417,9.92090615 C69.763695,10.0283176 69.6660482,10.1064349 69.5684016,10.1650229 C65.2719461,13.1139537 62.7136022,17.9377014 62.7136021,23.0739186 L62.7136021,23.2789767 C62.7136021,35.3676398 66.8928815,47.163363 74.4800313,56.4983889 C74.5190899,56.5472122 74.548384,56.5862709 74.5874427,56.6350942 C76.2572015,58.7344986 77.282492,60.9706083 77.6828435,63.4117762 L22.3171565,63.4117762 C22.7175081,60.9706083 23.7427985,58.7344985 25.4027927,56.6448589 C25.422322,56.6155648 25.4418514,56.5862709 25.4711454,56.5667415 C33.0875892,47.1633629 37.2863979,35.3481105 37.2863979,23.2887413 L37.2863979,23.0641539 C37.2863979,17.9279367 34.7182893,13.1041891 30.4218338,10.1552583 C30.3241871,10.0869056 30.2167757,9.99902354 30.1093644,9.89161211 C29.7187775,9.50102529 29.6894835,9.27643779 29.6894835,8.98349775 C29.6894835,8.68079297 29.7187775,8.46597021 30.119129,8.05585391 C30.5097158,7.66526709 30.7343033,7.63597305 31.0272435,7.63597305 L68.9532272,7.63597305 M68.9532272,1.3865833 L31.0272435,1.3865833 C28.9668978,1.3865833 27.1799629,2.14822764 25.6859682,3.64222246 C24.1919734,5.15574648 23.4400938,6.92315205 23.4400938,8.98349775 C23.4400938,11.0438435 24.2017381,12.8307783 25.6957328,14.3247729 C26.076555,14.6958305 26.4671419,15.0278293 26.8772581,15.3110048 C29.4453667,17.0784104 31.0272435,19.9492237 31.0272435,23.0739186 L31.0272435,23.298506 C31.0272435,33.9810565 27.3361977,44.3316082 20.6083391,52.6315789 C20.579045,52.6706376 20.5497511,52.7096963 20.5106923,52.748755 C17.4055268,56.6448589 15.8627087,61.0194316 15.8627087,65.8724734 C15.8627087,66.897764 16.2337662,67.786349 16.9856459,68.5382287 C17.7277609,69.2901084 18.6261107,69.6611659 19.6514013,69.6611659 L43.5846108,69.6611659 L48.0861244,98.4083586 C48.2814179,99.4727078 48.9161215,100 49.9804707,100 L50.0390587,100 C50.5077629,100 50.9178791,99.8437652 51.2498779,99.5117664 C51.5916414,99.1895322 51.8064642,98.7696514 51.8748169,98.3009472 L54.9116297,69.6709306 L80.3388341,69.6709306 C81.3641246,69.6709306 82.2527097,69.299873 83.0045894,68.5479934 C83.756469,67.8058783 84.1275266,66.9075285 84.1275266,65.8822381 C84.1275266,61.0096671 82.5749438,56.6350942 79.4697783,52.7389903 C79.420955,52.6804023 79.3721316,52.6120496 79.3233083,52.5534616 C72.5954497,44.282785 68.9532272,33.9322332 68.9532272,23.2789767 L68.9532272,23.0739186 C68.9532272,19.9589884 70.5253394,17.0784104 73.0934479,15.3207694 C73.5133288,15.0375939 73.9039157,14.7055951 74.2847378,14.3150083 C75.7884972,12.8014843 76.5403769,11.0340787 76.540377,8.97373301 C76.5403771,6.9133873 75.7787326,5.13621719 74.2847378,3.63245781 C72.7809784,2.13846309 71.0135729,1.3865833 68.9532272,1.3865833 L68.9532272,1.3865833 Z" id="形状"></path>
            </g>
        </g>
    </g>
</svg>