<?xml version="1.0" encoding="UTF-8"?>
<svg width="100px" height="100px" viewBox="0 0 100 100" version="1.1" xmlns="http://www.w3.org/2000/svg" xmlns:xlink="http://www.w3.org/1999/xlink">
    <title>图钉</title>
    <g id="钻井" stroke="none" stroke-width="1" fill="none" fill-rule="evenodd">
        <g id="实时曲线" transform="translate(-1054.000000, -512.000000)" fill="#000000" fill-rule="nonzero">
            <g id="图钉" transform="translate(1054.000000, 512.000000)">
                <rect id="矩形" opacity="0" x="0" y="0" width="100" height="100"></rect>
                <path d="M83.8926174,65.8635307 C83.8926174,66.8893834 83.5205187,67.7882257 82.7665292,68.5307477 C82.0125396,69.2830396 81.1214611,69.6543006 80.0932935,69.6543006 L54.6045299,69.6543006 L51.5689875,98.3000156 C51.490651,98.7689768 51.2850175,99.1890879 50.9422949,99.5114987 C50.6093645,99.8436796 50.1980975,100 49.728078,100 L49.6693256,100 C48.5921976,100 47.965505,99.4724186 47.7696636,98.4074858 L43.2555184,69.6445306 L19.2355656,69.6445306 C18.207398,69.6445306 17.3065274,69.2732696 16.5623299,68.5209776 C15.8083403,67.7686857 15.4362416,66.8796133 15.4362416,65.8537607 C15.4362416,60.998058 16.983389,56.6210865 20.0972679,52.7228463 C20.1266441,52.6837662 20.1560203,52.6446861 20.1951886,52.605606 C26.9419263,44.3010843 30.6433295,33.9448572 30.6433295,23.2466792 L30.6433295,23.0219686 C30.6433295,19.9053304 29.0570139,17.0231729 26.4816989,15.2547983 C26.0704319,14.9714675 25.678749,14.6392867 25.2968582,14.2680257 C23.7986712,12.7829818 23.0348895,10.9950671 23.0348895,8.94336177 C23.0348895,6.88188637 23.7888791,5.12328177 25.2968582,3.59915778 C26.7950452,2.10434387 28.5869944,1.34228188 30.6433295,1.34228188 L68.6757375,1.34228188 C70.7418647,1.34228188 72.5044376,2.09457385 74.0320009,3.59915778 C75.5301879,5.10374172 76.2939695,6.88188637 76.2939695,8.94336177 C76.2939695,11.0048372 75.53998,12.7634418 74.0320009,14.2875657 C73.6501101,14.6685967 73.2486351,15.0007776 72.8373681,15.2938784 C70.2620531,17.052483 68.6855295,19.9346405 68.6855295,23.0512787 L68.6855295,23.2564492 C68.6855295,33.9253171 72.3379724,44.2717742 79.0847101,52.5469858 C79.1336704,52.605606 79.1826308,52.6642262 79.2315911,52.7326163 C82.335678,56.6210865 83.8926174,60.998058 83.8926174,65.8635307 Z" id="路径"></path>
            </g>
        </g>
    </g>
</svg>