<?xml version="1.0" encoding="UTF-8"?>
<svg width="30px" height="30px" viewBox="0 0 30 30" version="1.1" xmlns="http://www.w3.org/2000/svg" xmlns:xlink="http://www.w3.org/1999/xlink">
    <title>返回</title>
    <g id="总页面" stroke="none" stroke-width="1" fill="none" fill-rule="evenodd">
        <g id="审批-签署" transform="translate(-1867.000000, -131.000000)">
            <g id="返回" transform="translate(1867.000000, 131.000000)">
                <path d="M26,0.5 C26.9664983,0.5 27.8414983,0.891750844 28.4748737,1.52512627 C29.1082492,2.15850169 29.5,3.03350169 29.5,4 L29.5,4 L29.5,26 C29.5,26.9664983 29.1082492,27.8414983 28.4748737,28.4748737 C27.8414983,29.1082492 26.9664983,29.5 26,29.5 L26,29.5 L4,29.5 C3.03350169,29.5 2.15850169,29.1082492 1.52512627,28.4748737 C0.891750844,27.8414983 0.5,26.9664983 0.5,26 L0.5,26 L0.5,4 C0.5,3.03350169 0.891750844,2.15850169 1.52512627,1.52512627 C2.15850169,0.891750844 3.03350169,0.5 4,0.5 L4,0.5 Z" id="矩形" stroke="#FFFFFF" fill="#FFFFFF"></path>
                <g transform="translate(8.000000, 8.000000)" fill="#3A85FF" fill-rule="nonzero" id="路径" stroke="#3A85FF">
                    <path d="M5.01138558,0.770909175 L5.43716752,1.3670039 L2.24402104,4.56015038 L13.7105263,4.56015038 L13.7105263,13.7105263 L0.5,13.7105263 L0.5,12.6804511 L12.6804511,12.6804511 L12.6804511,5.59022556 L2.24402104,5.59022556 L5.43716752,8.78337204 L5.01138558,9.37946676 L0.707106781,5.07518797 L5.01138558,0.770909175 Z"></path>
                </g>
            </g>
        </g>
    </g>
</svg>