<?xml version="1.0" encoding="UTF-8"?>
<svg width="30px" height="30px" viewBox="0 0 30 30" version="1.1" xmlns="http://www.w3.org/2000/svg" xmlns:xlink="http://www.w3.org/1999/xlink">
    <title>搜索</title>
    <g id="总页面" stroke="none" stroke-width="1" fill="none" fill-rule="evenodd">
        <g id="邻井查询-多井" transform="translate(-468.000000, -229.000000)" fill-rule="nonzero">
            <g id="搜索" transform="translate(468.000000, 229.000000)">
                <rect id="矩形" fill="#000000" opacity="0" x="0" y="0" width="30" height="30"></rect>
                <path d="M19.1888195,17.9263327 C19.5014318,17.9346089 19.8107578,18.0617879 20.0423936,18.3058882 L20.0423936,18.3058882 L25.5320867,24.0973084 C25.7640031,24.3427447 25.8749115,24.6583375 25.866637,24.970886 C25.8583546,25.2837338 25.7306953,25.5933825 25.4871824,25.8255002 C25.2502313,26.0499802 24.9488497,26.1601563 24.6474609,26.1601563 C24.3228575,26.1601563 24.0002421,26.0333855 23.7593642,25.7800493 L23.7593642,25.7800493 L18.2696712,19.9886291 C18.0377547,19.7431928 17.9268463,19.4276 17.9351208,19.1150515 C17.9434032,18.8022037 18.0710625,18.492555 18.3141053,18.2608821 C18.5596421,18.0288706 18.8759155,17.9180489 19.1888195,17.9263327 Z" id="路径" stroke="#BCD2F0" fill="#BDD2EF"></path>
                <path d="M13.1005111,3.91289874 L13.4251092,3.91583691 C15.8112419,3.97965208 18.0308656,4.970231 19.6731259,6.70126198 C21.3156384,8.43533341 22.1841101,10.7021 22.1202959,13.0881952 C22.0564807,15.4743279 21.0659018,17.6939515 19.3349221,19.3361633 C17.663528,20.9188599 15.4937258,21.7845468 13.201195,21.7861197 C10.5673901,21.7179219 8.34404836,20.7309557 6.69992093,18.9979568 C5.05740846,17.2638853 4.1889368,14.9971188 4.25275097,12.6110236 C4.31656615,10.2248909 5.30714506,8.00526724 7.03817604,6.36300686 C8.61460462,4.86981371 10.6312771,4.0163237 12.7776251,3.92142868 L13.1005111,3.91289874 Z M13.1835938,5.72558594 C11.3528031,5.72558594 9.62275058,6.41550193 8.28979779,7.67912857 C6.90997198,8.98649775 6.12211763,10.7538641 6.0685573,12.6568312 C6.01812205,14.5575854 6.71128355,16.366172 8.01888137,17.7462391 C9.3263415,19.1261608 11.0937078,19.9140152 12.9966749,19.9675755 C14.8974292,20.0180108 16.7060157,19.3248493 18.0860828,18.0172514 C19.4660046,16.7097913 20.2538589,14.942425 20.3074193,13.0394579 C20.3578605,11.1384768 19.6675409,9.32979762 18.3566817,7.94961409 C17.0529174,6.57359248 15.291681,5.78237869 13.1835938,5.72558594 Z" id="形状" stroke="#2867CE" fill="#2867CE"></path>
            </g>
        </g>
    </g>
</svg>