<?xml version="1.0" encoding="UTF-8"?>
<svg width="20px" height="20px" viewBox="0 0 20 20" version="1.1" xmlns="http://www.w3.org/2000/svg" xmlns:xlink="http://www.w3.org/1999/xlink">
    <title>删除</title>
    <g id="总页面" stroke="none" stroke-width="1" fill="none" fill-rule="evenodd">
        <g id="上井路线" transform="translate(-355.000000, -135.000000)" fill-rule="nonzero">
            <g id="删除" transform="translate(356.000000, 136.000000)">
                <path d="M9.0136512,0 L9.01365077,0 C13.9842083,0.00756351528 18.0075314,4.04310223 18,9.01365972 C17.9924365,13.9842172 13.9568978,18.0075404 8.98634028,18 C4.01578278,17.9924454 -0.00754035293,13.9569067 0,8.98634923 C0.00549329359,5.37393028 2.17035769,2.11483059 5.49810058,0.709245645 L5.49810082,0.709245544 C6.6103014,0.238728728 7.8060213,-0.00249517628 9.01365101,0" id="路径" stroke="#FF763B" fill="#FF7644"></path>
                <path d="M8.75000594,3.50000204 C8.94841303,3.50000204 9.12187514,3.60595051 9.24977791,3.75943404 C9.40771785,3.94896223 9.50000509,4.21215792 9.50000509,4.50000306 L9.50000509,4.50000306 L9.50000509,13.5000161 C9.50000509,13.7878593 9.40771706,14.0510549 9.2497767,14.2405835 C9.12187411,14.3940667 8.94841264,14.5000161 8.75000594,14.5000161 C8.55159891,14.5000161 8.3781369,14.3940665 8.25023389,14.2405829 C8.0922934,14.0510545 8.00000509,13.7878591 8.00000509,13.5000161 L8.00000509,13.5000161 L8.00000509,4.50000306 C8.00000509,4.21215813 8.0922926,3.94896267 8.25023268,3.75943457 C8.37813587,3.60595075 8.55159851,3.50000204 8.75000594,3.50000204 Z" id="形状结合" stroke="#FFFFFF" fill="#FFFFFF" transform="translate(8.750006, 9.000006) rotate(-90.000000) translate(-8.750006, -9.000006) "></path>
            </g>
        </g>
    </g>
</svg>