<?xml version="1.0" encoding="UTF-8"?>
<svg width="90px" height="57px" viewBox="0 0 90 57" version="1.1" xmlns="http://www.w3.org/2000/svg" xmlns:xlink="http://www.w3.org/1999/xlink">
    <title>编组 18</title>
    <defs>
        <path d="M10,0 L60,0 C65.5228475,-1.01453063e-15 70,4.4771525 70,10 L70,36 L70,36 L0,36 L0,10 C-6.76353751e-16,4.4771525 4.4771525,1.01453063e-15 10,0 Z" id="path-1"></path>
        <filter x="-25.0%" y="-62.5%" width="150.0%" height="197.2%" filterUnits="objectBoundingBox" id="filter-2">
            <feMorphology radius="5" operator="erode" in="SourceAlpha" result="shadowSpreadOuter1"></feMorphology>
            <feOffset dx="0" dy="-5" in="shadowSpreadOuter1" result="shadowOffsetOuter1"></feOffset>
            <feGaussianBlur stdDeviation="10" in="shadowOffsetOuter1" result="shadowBlurOuter1"></feGaussianBlur>
            <feComposite in="shadowBlurOuter1" in2="SourceAlpha" operator="out" result="shadowBlurOuter1"></feComposite>
            <feColorMatrix values="0 0 0 0 0.2   0 0 0 0 0.380392157   0 0 0 0 0.737254902  0 0 0 1 0" type="matrix" in="shadowBlurOuter1"></feColorMatrix>
        </filter>
    </defs>
    <g id="总页面" stroke="none" stroke-width="1" fill="none" fill-rule="evenodd">
        <g id="审批-签署" transform="translate(-1557.000000, -123.000000)">
            <g id="编组-18" transform="translate(1561.000000, 128.000000)">
                <g id="编组-17" transform="translate(6.000000, 0.000000)">
                    <g id="矩形复制-11" transform="translate(35.000000, 18.000000) scale(1, -1) translate(-35.000000, -18.000000) ">
                        <use fill="black" fill-opacity="1" filter="url(#filter-2)" xlink:href="#path-1"></use>
                        <path stroke="#E5F0FF" stroke-width="1" d="M60,0.5 C62.6233526,0.5 64.9983526,1.56332372 66.7175144,3.28248558 C68.4366763,5.00164744 69.5,7.37664744 69.5,10 L69.5,10 L69.5,35.5 L0.5,35.5 L0.5,10 C0.5,7.37664744 1.56332372,5.00164744 3.28248558,3.28248558 C5.00164744,1.56332372 7.37664744,0.5 10,0.5 L10,0.5 Z" stroke-linejoin="square" fill="#E5F0FF" fill-rule="evenodd"></path>
                    </g>
                    <path d="M17.928902,8.64467329 L15.6123736,14.2303448 L20.0223413,17.4451441 L24.498,13.111 L24.4977431,13.1638959 C24.4896779,13.2486713 24.4599811,13.3298398 24.4102398,13.3991934 L24.3538757,13.4643048 L19.4297067,18.2319429 C19.2449229,18.4125338 19.0940059,18.6274393 18.9871454,18.8627983 L18.9154199,19.0429359 L18.0823893,21.4643825 C17.8762637,22.0638754 17.4223973,22.549704 16.8510844,22.7938994 L16.6924577,22.8544111 L12.1121314,24.3906339 L10.7893643,26.3378342 L20.1943727,26.3378342 L20.1943727,26.5 L10.7736085,26.5 C10.7472047,26.4947776 10.7208625,26.486994 10.6953172,26.4760288 C10.6572198,26.144742 10.6096456,25.7842949 10.8363908,25.8871991 L10.8937154,25.9193956 L11.9980537,24.2962456 L11.786493,19.4044507 C11.7581501,18.7693073 12.0030014,18.1463484 12.4458505,17.7027123 L12.5714801,17.5862922 L14.5022414,15.9359734 C14.6991928,15.7692397 14.8630666,15.5629138 14.9856833,15.3320785 L15.0697823,15.1545922 L17.7081119,8.790131 C17.7920842,8.72966051 17.865034,8.68186044 17.928902,8.64467329 Z M15.3514442,14.6298355 C15.2907936,15.1922528 15.0081409,15.7074177 14.5893288,16.0658581 L14.5893288,16.0658581 L12.6570036,17.7175061 L12.5307658,17.835965 C12.1278034,18.2473092 11.9053352,18.818478 11.9291798,19.3998417 L11.9291798,19.3998417 L12.1320302,24.0996775 L16.2638162,17.7997196 L16.2931355,17.8039693 C16.3844587,17.8397008 16.4057033,18.0866233 16.1768654,18.4107313 L16.1768654,18.4107313 L12.2613859,24.1750555 L16.6528982,22.7012394 L16.8137989,22.6391642 C17.3399051,22.4097668 17.7595796,21.9595405 17.9486592,21.4076384 L17.9486592,21.4076384 L18.7815019,18.9844826 L18.8294409,18.8588149 C19.0036435,18.4440182 19.3273302,18.0643024 19.9632441,17.5433905 L19.9632441,17.5433905 Z M18.3610717,8.56238617 L18.3926946,8.58239658 L24.2961421,12.7188709 C24.4053311,12.7966212 24.4773534,12.9149955 24.4954623,13.0489296 L18.0968899,8.56225703 C18.2231054,8.51489179 18.2990119,8.52782095 18.3610717,8.56238617 Z" id="gangbi" stroke="#3461BC" fill="#3461BC" fill-rule="nonzero"></path>
                </g>
            </g>
        </g>
    </g>
</svg>