<?xml version="1.0" encoding="UTF-8"?>
<svg width="20px" height="20px" viewBox="0 0 20 20" version="1.1" xmlns="http://www.w3.org/2000/svg" xmlns:xlink="http://www.w3.org/1999/xlink">
    <title>新增</title>
    <g id="总页面" stroke="none" stroke-width="1" fill="none" fill-rule="evenodd">
        <g id="上井路线" transform="translate(-317.000000, -135.000000)" fill-rule="nonzero">
            <g id="新增" transform="translate(318.000000, 136.000000)">
                <path d="M9.0136512,0 L9.01365077,0 C13.9842083,0.00756351528 18.0075314,4.04310223 18,9.01365972 C17.9924365,13.9842172 13.9568978,18.0075404 8.98634028,18 C4.01578278,17.9924454 -0.00754035293,13.9569067 0,8.98634923 C0.00549329359,5.37393028 2.17035769,2.11483059 5.49810058,0.709245645 L5.49810082,0.709245544 C6.6103014,0.238728728 7.8060213,-0.00249517628 9.01365101,0" id="路径" stroke="#3A85FF" fill="#3A85FF"></path>
                <g id="编组-3" transform="translate(3.000002, 3.000002)" fill="#FFFFFF" stroke="#FFFFFF">
                    <path d="M6.00000408,0.5 C6.19841117,0.5 6.37187328,0.605948477 6.49977604,0.759432002 C6.65771599,0.948960196 6.75000322,1.21215588 6.75000322,1.50000103 L6.75000322,1.50000103 L6.75000322,10.5000141 C6.75000322,10.7878573 6.65771519,11.0510529 6.49977483,11.2405814 C6.37187225,11.3940647 6.19841077,11.5000141 6.00000408,11.5000141 C5.80159704,11.5000141 5.62813503,11.3940644 5.50023202,11.2405809 C5.34229153,11.0510525 5.25000322,10.7878571 5.25000322,10.5000141 L5.25000322,10.5000141 L5.25000322,1.50000103 C5.25000322,1.21215609 5.34229074,0.94896063 5.50023081,0.759432539 C5.628134,0.60594871 5.80159665,0.5 6.00000408,0.5 Z" id="形状结合" transform="translate(6.000004, 6.000004) rotate(-90.000000) translate(-6.000004, -6.000004) "></path>
                    <path d="M6.00000408,0.5 C6.19841117,0.5 6.37187328,0.605948477 6.49977604,0.759432002 C6.65771599,0.948960196 6.75000322,1.21215588 6.75000322,1.50000103 L6.75000322,1.50000103 L6.75000322,10.5000141 C6.75000322,10.7878573 6.65771519,11.0510529 6.49977483,11.2405814 C6.37187225,11.3940647 6.19841077,11.5000141 6.00000408,11.5000141 C5.80159704,11.5000141 5.62813503,11.3940644 5.50023202,11.2405809 C5.34229153,11.0510525 5.25000322,10.7878571 5.25000322,10.5000141 L5.25000322,10.5000141 L5.25000322,1.50000103 C5.25000322,1.21215609 5.34229074,0.94896063 5.50023081,0.759432539 C5.628134,0.60594871 5.80159665,0.5 6.00000408,0.5 Z" id="形状结合" transform="translate(6.000004, 6.000004) rotate(-180.000000) translate(-6.000004, -6.000004) "></path>
                </g>
            </g>
        </g>
    </g>
</svg>