<?xml version="1.0" encoding="UTF-8"?>
<svg width="48px" height="48px" viewBox="0 0 48 48" version="1.1" xmlns="http://www.w3.org/2000/svg" xmlns:xlink="http://www.w3.org/1999/xlink">
    <title>查询</title>
    <g id="总页面" stroke="none" stroke-width="1" fill="none" fill-rule="evenodd">
        <g id="上井路线" transform="translate(-409.000000, -68.000000)">
            <g id="查询" transform="translate(409.000000, 68.000000)">
                <g id="编组-17" fill="#3A85FF" stroke="#3A85FF">
                    <path d="M40,0.5 C42.0710678,0.5 43.9460678,1.33946609 45.3033009,2.69669914 C46.6605339,4.05393219 47.5,5.92893219 47.5,8 L47.5,8 L47.5,40 C47.5,42.0710678 46.6605339,43.9460678 45.3033009,45.3033009 C43.9460678,46.6605339 42.0710678,47.5 40,47.5 L40,47.5 L8,47.5 C5.92893219,47.5 4.05393219,46.6605339 2.69669914,45.3033009 C1.33946609,43.9460678 0.5,42.0710678 0.5,40 L0.5,40 L0.5,8 C0.5,5.92893219 1.33946609,4.05393219 2.69669914,2.69669914 C4.05393219,1.33946609 5.92893219,0.5 8,0.5 L8,0.5 Z" id="矩形"></path>
                </g>
                <g id="搜索" transform="translate(11.000000, 11.000000)" fill="#FFFFFF" fill-rule="nonzero" stroke="#FFFFFF">
                    <path d="M17.7502438,16.6095283 C18.1287504,16.619549 18.5032612,16.7735635 18.783756,17.0691522 L18.783756,17.0691522 L25.0944971,23.7267474 C25.3752551,24.0238724 25.5094941,24.405935 25.4994772,24.7842994 C25.4894517,25.1629887 25.3349567,25.5378244 25.039954,25.8190218 C24.7530566,26.0908193 24.3881467,26.2242161 24.0232297,26.2242161 C23.6302787,26.2242161 23.2397537,26.0707197 22.9480532,25.7639321 L22.9480532,25.7639321 L16.6373122,19.1063369 C16.3565542,18.8092118 16.2223152,18.4271492 16.2323321,18.0487848 C16.2423576,17.6700956 16.3968525,17.2952598 16.6913851,17.0145073 C16.9886122,16.7336529 17.3714673,16.5995006 17.7502438,16.6095283 Z" id="路径"></path>
                    <path d="M10.7800021,0.500178478 L11.1246083,0.503805739 C13.8875292,0.577697811 16.4576536,1.72468768 18.3592845,3.72910922 C20.2611675,5.73700936 21.2667726,8.36172479 21.1928815,11.1246083 C21.1189895,13.8875292 19.9719996,16.4576536 17.9676293,18.359236 C16.0320507,20.1920973 13.5192047,21.1944792 10.8643815,21.1960591 C7.81477312,21.1173567 5.24091163,19.9739791 3.33740275,17.9675781 C1.43551975,15.9596779 0.429914669,13.3349625 0.503805739,10.572079 C0.577697811,7.80915805 1.72468768,5.23903367 3.72910922,3.33740275 C5.56968434,1.59401 7.92855566,0.603739668 10.4370429,0.507716446 L10.7800021,0.500178478 Z M10.8449758,2.73371752 C8.75963407,2.73371752 6.78905038,3.51958308 5.27077032,4.95889822 C3.69904537,6.44808965 2.80165954,8.4612446 2.74065107,10.6288397 C2.6832058,12.7937839 3.47275501,14.8538547 4.96217508,16.425821 C6.45145746,17.9976419 8.46461242,18.8950277 10.6322076,18.9560362 C12.7971518,19.0134815 14.8572226,18.2239323 16.4291888,16.7345122 C18.0010097,15.2452298 18.8983956,13.2320749 18.959404,11.0644797 C19.0168553,8.89930871 18.2305861,6.83914524 16.7374665,5.26706256 C15.25188,3.6991418 13.244855,2.79839653 10.8449758,2.73371752 Z" id="形状"></path>
                </g>
            </g>
        </g>
    </g>
</svg>