<?xml version="1.0" encoding="UTF-8"?>
<svg xmlns="http://www.w3.org/2000/svg" xmlns:xlink="http://www.w3.org/1999/xlink" width="321px" height="138px" viewBox="0 0 321 138" version="1.1">
  <title>403-页面无权限</title>
  <defs>
    <linearGradient x1="0%" y1="53.2087054%" x2="98.2036683%" y2="53.2087054%" id="linearGradient-1">
      <stop stop-color="#EEFAFF" offset="0%"></stop>
      <stop stop-color="#EFF9FF" offset="100%"></stop>
    </linearGradient>
    <linearGradient x1="-4.36533505%" y1="49.084489%" x2="100%" y2="50.922134%" id="linearGradient-2">
      <stop stop-color="#5CA2FF" offset="0%"></stop>
      <stop stop-color="#1E7AFF" offset="100%"></stop>
    </linearGradient>
    <linearGradient x1="-50.0029613%" y1="-7.04989461%" x2="100%" y2="79.1815663%" id="linearGradient-3">
      <stop stop-color="#D1E5FF" offset="0%"></stop>
      <stop stop-color="#5499FF" offset="100%"></stop>
    </linearGradient>
  </defs>
  <g id="页面-1" stroke="none" stroke-width="1" fill="none" fill-rule="evenodd">
    <g id="403-没有权限备份" transform="translate(-55.000000, -111.000000)">
      <g id="403-页面无权限" transform="translate(55.000000, 111.000000)">
        <g id="编组-16" opacity="0.300000012" transform="translate(60.959717, 5.996038)">
          <circle id="椭圆形备份-29" fill="#C2DBFF" cx="2.99801887" cy="2.99801887" r="2.99801887"></circle>
          <circle id="椭圆形备份-41" stroke="#C2DBFF" stroke-width="1.99867925" cx="2.99801887" cy="36.975566" r="1.99867925"></circle>
          <circle id="椭圆形备份-35" fill="#C2DBFF" cx="59.9603774" cy="2.99801887" r="2.99801887"></circle>
          <circle id="椭圆形备份-42" fill="#C2DBFF" cx="59.9603774" cy="36.975566" r="2.99801887"></circle>
          <circle id="椭圆形备份-31" fill="#C2DBFF" cx="40.9729245" cy="2.99801887" r="2.99801887"></circle>
          <circle id="椭圆形备份-43" fill="#C2DBFF" cx="40.9729245" cy="36.975566" r="2.99801887"></circle>
          <circle id="椭圆形备份-32" stroke="#C2DBFF" stroke-width="1.99867925" cx="2.99801887" cy="19.9867925" r="1.99867925"></circle>
          <circle id="椭圆形备份-45" fill="#C2DBFF" cx="2.99801887" cy="53.9643396" r="2.99801887"></circle>
          <circle id="椭圆形备份-37" stroke="#C2DBFF" stroke-width="1.99867925" cx="59.9603774" cy="19.9867925" r="1.99867925"></circle>
          <circle id="椭圆形备份-46" stroke="#C2DBFF" stroke-width="1.99867925" cx="59.9603774" cy="53.9643396" r="1.99867925"></circle>
          <circle id="椭圆形备份-33" fill="#C2DBFF" cx="21.9854717" cy="19.9867925" r="2.99801887"></circle>
          <circle id="椭圆形备份-47" stroke="#C2DBFF" stroke-width="1.99867925" cx="21.9854717" cy="53.9643396" r="1.99867925"></circle>
          <circle id="椭圆形备份-38" fill="#C2DBFF" cx="78.9478302" cy="19.9867925" r="2.99801887"></circle>
          <circle id="椭圆形备份-48" fill="#C2DBFF" cx="78.9478302" cy="53.9643396" r="2.99801887"></circle>
          <circle id="椭圆形备份-34" stroke="#C2DBFF" stroke-width="1.99867925" cx="40.9729245" cy="19.9867925" r="1.99867925"></circle>
          <circle id="椭圆形备份-49" fill="#C2DBFF" cx="40.9729245" cy="53.9643396" r="2.99801887"></circle>
          <circle id="椭圆形备份-30" stroke="#C2DBFF" stroke-width="1.99867925" cx="21.9854717" cy="2.99801887" r="1.99867925"></circle>
          <circle id="椭圆形备份-51" stroke="#C2DBFF" stroke-width="1.99867925" cx="21.9854717" cy="36.975566" r="1.99867925"></circle>
          <circle id="椭圆形备份-40" stroke="#C2DBFF" stroke-width="1.99867925" cx="78.9478302" cy="2.99801887" r="1.99867925"></circle>
          <circle id="椭圆形备份-52" stroke="#C2DBFF" stroke-width="1.99867925" cx="78.9478302" cy="36.975566" r="1.99867925"></circle>
        </g>
        <path d="M0,133.911509 C16.6572328,89.8093165 39.3110693,63.7489297 67.9615097,55.7303492 C110.93717,43.7024784 110.866841,101.917373 147.269819,101.917373 C183.672796,101.917373 198.994118,7.11770469 250.411588,0.602608003 C301.829058,-5.91248868 276.766731,42.2992268 304.82736,53.7257041 C323.534445,61.3433556 325.796954,88.0719574 311.614886,133.911509 L0,133.911509 Z" id="路径-17备份-2" fill="url(#linearGradient-1)" opacity="0.900000036"></path>
        <g id="编组-15" transform="translate(101.932642, 31.978868)">
          <path d="M0,13.9907547 L131.91283,13.9907547 L131.91283,97.935283 C131.91283,100.142963 130.123152,101.932642 127.915472,101.932642 L3.99735849,101.932642 C1.78967836,101.932642 -2.39417242e-15,100.142963 0,97.935283 L0,13.9907547 L0,13.9907547 Z" id="矩形备份-43" fill="#CFE3FF"></path>
          <path d="M52.965,25.9828302 L118.921415,25.9828302 C120.577175,25.9828302 121.919434,27.325089 121.919434,28.9808491 L121.919434,86.9425472 C121.919434,88.5983073 120.577175,89.940566 118.921415,89.940566 L52.965,89.940566 C51.3092399,89.940566 49.9669811,88.5983073 49.9669811,86.9425472 L49.9669811,28.9808491 C49.9669811,27.325089 51.3092399,25.9828302 52.965,25.9828302 Z" id="矩形备份-44" fill="#FFFFFF"></path>
          <path d="M12.9914151,25.9828302 L40.9729245,25.9828302 C42.6286846,25.9828302 43.9709434,27.325089 43.9709434,28.9808491 L43.9709434,86.9425472 C43.9709434,88.5983073 42.6286846,89.940566 40.9729245,89.940566 L12.9914151,89.940566 C11.335655,89.940566 9.99339623,88.5983073 9.99339623,86.9425472 L9.99339623,28.9808491 C9.99339623,27.325089 11.335655,25.9828302 12.9914151,25.9828302 Z" id="矩形备份-45" fill="#FFFFFF"></path>
          <circle id="椭圆形备份-55" fill="#CFE3FF" cx="27.9815094" cy="41.9722642" r="6.99537736"></circle>
          <path d="M18.9874528,66.9557547 L30.9795283,66.9557547 C32.0833684,66.9557547 32.9782075,67.8505939 32.9782075,68.954434 C32.9782075,70.058274 32.0833684,70.9531132 30.9795283,70.9531132 L18.9874528,70.9531132 C17.8836128,70.9531132 16.9887736,70.058274 16.9887736,68.954434 C16.9887736,67.8505939 17.8836128,66.9557547 18.9874528,66.9557547 Z" id="矩形备份-49" fill="#CFE3FF"></path>
          <path d="M18.9874528,58.9610377 L36.975566,58.9610377 C38.0794061,58.9610377 38.9742453,59.8558769 38.9742453,60.959717 C38.9742453,62.063557 38.0794061,62.9583962 36.975566,62.9583962 L18.9874528,62.9583962 C17.8836128,62.9583962 16.9887736,62.063557 16.9887736,60.959717 C16.9887736,59.8558769 17.8836128,58.9610377 18.9874528,58.9610377 Z" id="矩形备份-55" fill="#CFE3FF"></path>
          <path d="M99.9339623,33.9775472 L113.924717,33.9775472 C115.028557,33.9775472 115.923396,34.8723863 115.923396,35.9762264 C115.923396,37.0800665 115.028557,37.9749057 113.924717,37.9749057 L99.9339623,37.9749057 C98.8301222,37.9749057 97.935283,37.0800665 97.935283,35.9762264 C97.935283,34.8723863 98.8301222,33.9775472 99.9339623,33.9775472 Z" id="矩形备份-56" fill="#CFE3FF"></path>
          <path d="M18.9874528,74.9504717 L34.9768868,74.9504717 C36.0807269,74.9504717 36.975566,75.8453109 36.975566,76.9491509 C36.975566,78.052991 36.0807269,78.9478302 34.9768868,78.9478302 L18.9874528,78.9478302 C17.8836128,78.9478302 16.9887736,78.052991 16.9887736,76.9491509 C16.9887736,75.8453109 17.8836128,74.9504717 18.9874528,74.9504717 Z" id="矩形备份-57" fill="#CFE3FF"></path>
          <path d="M3.99735849,0 L127.915472,0 C130.123152,6.99362194e-15 131.91283,1.78967836 131.91283,3.99735849 L131.91283,16.9887736 L131.91283,16.9887736 L0,16.9887736 L0,3.99735849 C-7.14452051e-16,1.78967836 1.78967836,1.73781189e-15 3.99735849,0 Z" id="矩形备份-58" fill="url(#linearGradient-2)"></path>
          <g id="编组-9备份" transform="translate(54.963679, 42.971604)" fill-rule="nonzero">
            <path d="M18.9600737,0.499669811 C23.4555619,0.499669811 25.491521,3.03683106 27.5242819,9.26937931 L27.8157942,10.1898006 C28.0406919,10.9231573 28.7719251,13.3190395 29.0285204,14.1182117 C29.5515324,15.7471454 30.0419684,17.1089854 30.5886852,18.4047133 C35.045074,28.9664291 43.4616812,34.477217 60.959717,34.477217 C61.787597,34.477217 62.4587264,35.1483464 62.4587264,35.9762264 C62.4587264,36.8041065 61.787597,37.4752358 60.959717,37.4752358 C42.2633486,37.4752358 32.7542784,31.2491559 27.8264804,19.5701924 C27.3061346,18.3369641 26.8381884,17.0610924 26.3557517,15.5940947 L26.0946589,14.7849326 C25.7391824,13.6576045 24.9593153,11.0972522 24.8930596,10.885304 L24.676164,10.204414 C23.0285346,5.13464203 21.7060092,3.49768868 18.9600737,3.49768868 C14.672396,3.49768868 13.1865571,7.27565564 11.8700556,18.6947918 L11.5315391,21.6240896 C10.9477432,26.4759771 10.4970807,28.842964 9.6017983,31.2715569 C8.13387932,35.2535156 5.69137637,37.4752358 1.99867925,37.4752358 C1.1707992,37.4752358 0.499669811,36.8041065 0.499669811,35.9762264 C0.499669811,35.1483464 1.1707992,34.477217 1.99867925,34.477217 C6.05835219,34.477217 7.45728639,30.8272914 8.76039063,19.5058593 L9.00088387,17.4062293 C9.63630929,11.9942684 10.1156402,9.38650645 11.1028875,6.77720899 C12.6284502,2.74514233 15.158161,0.499669811 18.9600737,0.499669811 Z" id="路径-5" fill="#3689FF"></path>
            <path d="M31.4791981,9.49372642 C37.024628,9.49372642 40.0308709,12.4382693 44.1159091,19.8262546 L45.7158491,22.7624949 C50.3250277,31.149086 53.9832363,34.477217 60.959717,34.477217 C61.787597,34.477217 62.4587264,35.1483464 62.4587264,35.9762264 C62.4587264,36.8041065 61.787597,37.4752358 60.959717,37.4752358 C56.3510611,37.4752358 52.6438645,35.9942353 49.5520114,33.1813579 C47.3604122,31.1875052 45.6939778,28.8452402 43.5997879,25.1260393 L42.7946204,23.6684353 L41.7050418,21.6640791 C38.0007958,14.8862793 35.6352024,12.4917453 31.4791981,12.4917453 C27.6446275,12.4917453 25.5412895,14.5376448 22.5459519,20.3720347 L20.6492509,24.1646488 C15.9970026,33.3014291 11.2405782,37.4752358 1.99867925,37.4752358 C1.1707992,37.4752358 0.499669811,36.8041065 0.499669811,35.9762264 C0.499669811,35.1483464 1.1707992,34.477217 1.99867925,34.477217 C9.74266515,34.477217 13.6549763,31.153731 17.7748208,23.1992566 L19.5006861,19.7494354 C23.1645184,12.4235989 25.9654401,9.49372642 31.4791981,9.49372642 Z" id="路径-5" fill="#38DBBA"></path>
          </g>
          <circle id="椭圆形备份-56" fill="#FAFCFF" cx="8.9940566" cy="7.99471698" r="2.99801887"></circle>
          <circle id="椭圆形备份-57" fill="#FAFCFF" cx="18.9874528" cy="7.99471698" r="2.99801887"></circle>
          <circle id="椭圆形备份-58" fill="#FAFCFF" cx="28.9808491" cy="7.99471698" r="2.99801887"></circle>
        </g>
        <g id="编组" transform="translate(101.932642, 31.978868)">
          <path d="M0,13.9907547 L131.91283,13.9907547 L131.91283,97.935283 C131.91283,100.142963 130.123152,101.932642 127.915472,101.932642 L3.99735849,101.932642 C1.78967836,101.932642 -2.39417242e-15,100.142963 0,97.935283 L0,13.9907547 L0,13.9907547 Z" id="矩形备份-59" fill="#CFE3FF"></path>
          <path d="M52.965,25.9828302 L118.921415,25.9828302 C120.577175,25.9828302 121.919434,27.325089 121.919434,28.9808491 L121.919434,86.9425472 C121.919434,88.5983073 120.577175,89.940566 118.921415,89.940566 L52.965,89.940566 C51.3092399,89.940566 49.9669811,88.5983073 49.9669811,86.9425472 L49.9669811,28.9808491 C49.9669811,27.325089 51.3092399,25.9828302 52.965,25.9828302 Z" id="矩形备份-60" fill="#FFFFFF"></path>
          <path d="M12.9914151,25.9828302 L40.9729245,25.9828302 C42.6286846,25.9828302 43.9709434,27.325089 43.9709434,28.9808491 L43.9709434,86.9425472 C43.9709434,88.5983073 42.6286846,89.940566 40.9729245,89.940566 L12.9914151,89.940566 C11.335655,89.940566 9.99339623,88.5983073 9.99339623,86.9425472 L9.99339623,28.9808491 C9.99339623,27.325089 11.335655,25.9828302 12.9914151,25.9828302 Z" id="矩形备份-61" fill="#FFFFFF"></path>
          <circle id="椭圆形备份-63" fill="#DBEAFF" cx="27.9815094" cy="41.9722642" r="6.99537736"></circle>
          <path d="M59.9603774,34.9768868 L87.9418868,34.9768868 C89.0457269,34.9768868 89.940566,35.871726 89.940566,36.975566 C89.940566,38.0794061 89.0457269,38.9742453 87.9418868,38.9742453 L59.9603774,38.9742453 C58.8565373,38.9742453 57.9616981,38.0794061 57.9616981,36.975566 C57.9616981,35.871726 58.8565373,34.9768868 59.9603774,34.9768868 Z" id="矩形备份-62" fill="#BBD9FF"></path>
          <path d="M59.9603774,42.9716038 L77.9484906,42.9716038 C79.0523306,42.9716038 79.9471698,43.866443 79.9471698,44.970283 C79.9471698,46.0741231 79.0523306,46.9689623 77.9484906,46.9689623 L59.9603774,46.9689623 C58.8565373,46.9689623 57.9616981,46.0741231 57.9616981,44.970283 C57.9616981,43.866443 58.8565373,42.9716038 59.9603774,42.9716038 Z" id="矩形备份-63" fill="#DBEAFF"></path>
          <path d="M59.9603774,66.9557547 L71.9524528,66.9557547 C73.0562929,66.9557547 73.9511321,67.8505939 73.9511321,68.954434 C73.9511321,70.058274 73.0562929,70.9531132 71.9524528,70.9531132 L59.9603774,70.9531132 C58.8565373,70.9531132 57.9616981,70.058274 57.9616981,68.954434 C57.9616981,67.8505939 58.8565373,66.9557547 59.9603774,66.9557547 Z" id="矩形备份-64" fill="#BBD9FF"></path>
          <path d="M18.9874528,66.9557547 L30.9795283,66.9557547 C32.0833684,66.9557547 32.9782075,67.8505939 32.9782075,68.954434 C32.9782075,70.058274 32.0833684,70.9531132 30.9795283,70.9531132 L18.9874528,70.9531132 C17.8836128,70.9531132 16.9887736,70.058274 16.9887736,68.954434 C16.9887736,67.8505939 17.8836128,66.9557547 18.9874528,66.9557547 Z" id="矩形备份-65" fill="#DBEAFF"></path>
          <path d="M95.9366038,34.9768868 L111.926038,34.9768868 C113.029878,34.9768868 113.924717,35.871726 113.924717,36.975566 C113.924717,38.0794061 113.029878,38.9742453 111.926038,38.9742453 L95.9366038,38.9742453 C94.8327637,38.9742453 93.9379245,38.0794061 93.9379245,36.975566 C93.9379245,35.871726 94.8327637,34.9768868 95.9366038,34.9768868 Z" id="矩形备份-66" fill="#DBEAFF"></path>
          <path d="M84.9438679,42.9716038 L102.931981,42.9716038 C104.035821,42.9716038 104.93066,43.866443 104.93066,44.970283 C104.93066,46.0741231 104.035821,46.9689623 102.931981,46.9689623 L84.9438679,46.9689623 C83.8400279,46.9689623 82.9451887,46.0741231 82.9451887,44.970283 C82.9451887,43.866443 83.8400279,42.9716038 84.9438679,42.9716038 Z" id="矩形备份-67" fill="#BBD9FF"></path>
          <path d="M78.9478302,66.9557547 L102.931981,66.9557547 C104.035821,66.9557547 104.93066,67.8505939 104.93066,68.954434 C104.93066,70.058274 104.035821,70.9531132 102.931981,70.9531132 L78.9478302,70.9531132 C77.8439901,70.9531132 76.9491509,70.058274 76.9491509,68.954434 C76.9491509,67.8505939 77.8439901,66.9557547 78.9478302,66.9557547 Z" id="矩形备份-68" fill="#DBEAFF"></path>
          <path d="M59.9603774,50.9663208 L109.927358,50.9663208 C111.031199,50.9663208 111.926038,51.8611599 111.926038,52.965 C111.926038,54.0688401 111.031199,54.9636792 109.927358,54.9636792 L59.9603774,54.9636792 C58.8565373,54.9636792 57.9616981,54.0688401 57.9616981,52.965 C57.9616981,51.8611599 58.8565373,50.9663208 59.9603774,50.9663208 Z" id="矩形备份-69" fill="#BBD9FF"></path>
          <path d="M59.9603774,58.9610377 L95.9366038,58.9610377 C97.0404438,58.9610377 97.935283,59.8558769 97.935283,60.959717 C97.935283,62.063557 97.0404438,62.9583962 95.9366038,62.9583962 L59.9603774,62.9583962 C58.8565373,62.9583962 57.9616981,62.063557 57.9616981,60.959717 C57.9616981,59.8558769 58.8565373,58.9610377 59.9603774,58.9610377 Z" id="矩形备份-70" fill="#DBEAFF"></path>
          <path d="M18.9874528,58.9610377 L36.975566,58.9610377 C38.0794061,58.9610377 38.9742453,59.8558769 38.9742453,60.959717 C38.9742453,62.063557 38.0794061,62.9583962 36.975566,62.9583962 L18.9874528,62.9583962 C17.8836128,62.9583962 16.9887736,62.063557 16.9887736,60.959717 C16.9887736,59.8558769 17.8836128,58.9610377 18.9874528,58.9610377 Z" id="矩形备份-71" fill="#DBEAFF"></path>
          <path d="M59.9603774,74.9504717 L93.9379245,74.9504717 C95.0417646,74.9504717 95.9366038,75.8453109 95.9366038,76.9491509 C95.9366038,78.052991 95.0417646,78.9478302 93.9379245,78.9478302 L59.9603774,78.9478302 C58.8565373,78.9478302 57.9616981,78.052991 57.9616981,76.9491509 C57.9616981,75.8453109 58.8565373,74.9504717 59.9603774,74.9504717 Z" id="矩形备份-72" fill="#DBEAFF"></path>
          <path d="M18.9874528,74.9504717 L34.9768868,74.9504717 C36.0807269,74.9504717 36.975566,75.8453109 36.975566,76.9491509 C36.975566,78.052991 36.0807269,78.9478302 34.9768868,78.9478302 L18.9874528,78.9478302 C17.8836128,78.9478302 16.9887736,78.052991 16.9887736,76.9491509 C16.9887736,75.8453109 17.8836128,74.9504717 18.9874528,74.9504717 Z" id="矩形备份-73" fill="#DBEAFF"></path>
          <path d="M3.99735849,0 L127.915472,0 C130.123152,6.99362194e-15 131.91283,1.78967836 131.91283,3.99735849 L131.91283,16.9887736 L131.91283,16.9887736 L0,16.9887736 L0,3.99735849 C-7.14452051e-16,1.78967836 1.78967836,1.73781189e-15 3.99735849,0 Z" id="矩形备份-74" fill="url(#linearGradient-2)"></path>
        </g>
        <g id="锁定" transform="translate(203.865283, 84.943868)">
          <path d="M22.0654189,-1.76926649e-13 C13.1795063,-1.76926649e-13 5.97605094,7.0792579 5.97605094,15.811965 L5.97605094,32.4561388 C5.97605094,41.1888459 13.1795063,48.2681038 22.0654189,48.2681038 C30.9513314,48.2681038 38.1547868,41.1888459 38.1547868,32.4561388 L38.1547868,15.811965 C38.1547868,7.0792579 30.9513314,-1.76926649e-13 22.0654189,-1.76926649e-13 Z M22.0654189,5.51635472 C28.4124992,5.51635472 33.5578245,10.3440121 33.5578245,16.2992292 L33.5578245,32.888267 C33.5578245,38.8434841 28.4124992,43.6711415 22.0654189,43.6711415 C15.7183385,43.6711415 10.5730132,38.8434841 10.5730132,32.888267 L10.5730132,16.2992292 C10.5730132,10.3440121 15.7183385,5.51635472 22.0654189,5.51635472 Z" id="矩形" fill="#7AA7FF"></path>
          <path d="M3.67756981,19.9967858 L41.3726604,19.9967858 C43.4037261,19.9967858 45.0502302,21.6432899 45.0502302,23.6743557 L45.0502302,48.9576481 C45.0502302,50.9887138 43.4037261,52.6352179 41.3726604,52.6352179 L3.67756981,52.6352179 C1.64650409,52.6352179 0,50.9887138 0,48.9576481 L0,23.6743557 C0,21.6432899 1.64650409,19.9967858 3.67756981,19.9967858 Z" id="矩形备份-22" fill="url(#linearGradient-3)"></path>
          <path d="M22.5251151,30.1101028 C24.5561808,30.1101028 26.2026849,31.8595134 26.2026849,34.0175208 C26.2026849,35.6573029 25.252016,37.0611669 23.9043332,37.6408542 L23.9042038,41.3726604 C23.9042038,42.0073685 23.3896713,42.5219009 22.7549632,42.5219009 L22.295267,42.5219009 C21.6605589,42.5219009 21.1460264,42.0073685 21.1460264,41.3726604 L21.1463531,37.6410504 C19.7984287,37.0614837 18.8475453,35.6574879 18.8475453,34.0175208 C18.8475453,31.8595134 20.4940494,30.1101028 22.5251151,30.1101028 Z" id="形状结合" fill="#175EEB"></path>
        </g>
      </g>
    </g>
  </g>
</svg>
