<?xml version="1.0" encoding="UTF-8"?>
<svg xmlns="http://www.w3.org/2000/svg" xmlns:xlink="http://www.w3.org/1999/xlink" width="321px" height="143px" viewBox="0 0 321 143" version="1.1">
  <title>404-页面不存在</title>
  <defs>
    <linearGradient x1="0%" y1="53.2087054%" x2="98.2036683%" y2="53.2087054%" id="linearGradient-1">
      <stop stop-color="#EEFAFF" offset="0%"></stop>
      <stop stop-color="#EFF9FF" offset="100%"></stop>
    </linearGradient>
    <linearGradient x1="-4.36533505%" y1="49.084489%" x2="100%" y2="50.922134%" id="linearGradient-2">
      <stop stop-color="#5CA2FF" offset="0%"></stop>
      <stop stop-color="#1E7AFF" offset="100%"></stop>
    </linearGradient>
  </defs>
  <g id="页面-1" stroke="none" stroke-width="1" fill="none" fill-rule="evenodd">
    <g id="404-页面不存在备份" transform="translate(-55.000000, -109.000000)">
      <g id="404-页面不存在" transform="translate(55.000000, 109.000000)">
        <g id="编组-16" opacity="0.300000012" transform="translate(60.987409, 5.998762)">
          <circle id="椭圆形备份-29" fill="#C2DBFF" cx="2.99938078" cy="2.99938078" r="2.99938078"></circle>
          <circle id="椭圆形备份-41" stroke="#C2DBFF" stroke-width="1.99958719" cx="2.99938078" cy="36.992363" r="1.99958719"></circle>
          <circle id="椭圆形备份-35" fill="#C2DBFF" cx="59.9876156" cy="2.99938078" r="2.99938078"></circle>
          <circle id="椭圆形备份-42" fill="#C2DBFF" cx="59.9876156" cy="36.992363" r="2.99938078"></circle>
          <circle id="椭圆形备份-31" fill="#C2DBFF" cx="40.9915373" cy="2.99938078" r="2.99938078"></circle>
          <circle id="椭圆形备份-43" fill="#C2DBFF" cx="40.9915373" cy="36.992363" r="2.99938078"></circle>
          <circle id="椭圆形备份-32" stroke="#C2DBFF" stroke-width="1.99958719" cx="2.99938078" cy="19.9958719" r="1.99958719"></circle>
          <circle id="椭圆形备份-45" fill="#C2DBFF" cx="2.99938078" cy="53.988854" r="2.99938078"></circle>
          <circle id="椭圆形备份-37" stroke="#C2DBFF" stroke-width="1.99958719" cx="59.9876156" cy="19.9958719" r="1.99958719"></circle>
          <circle id="椭圆形备份-46" stroke="#C2DBFF" stroke-width="1.99958719" cx="59.9876156" cy="53.988854" r="1.99958719"></circle>
          <circle id="椭圆形备份-33" fill="#C2DBFF" cx="21.9954591" cy="19.9958719" r="2.99938078"></circle>
          <circle id="椭圆形备份-47" stroke="#C2DBFF" stroke-width="1.99958719" cx="21.9954591" cy="53.988854" r="1.99958719"></circle>
          <circle id="椭圆形备份-38" fill="#C2DBFF" cx="78.9836939" cy="19.9958719" r="2.99938078"></circle>
          <circle id="椭圆形备份-48" fill="#C2DBFF" cx="78.9836939" cy="53.988854" r="2.99938078"></circle>
          <circle id="椭圆形备份-34" stroke="#C2DBFF" stroke-width="1.99958719" cx="40.9915373" cy="19.9958719" r="1.99958719"></circle>
          <circle id="椭圆形备份-49" fill="#C2DBFF" cx="40.9915373" cy="53.988854" r="2.99938078"></circle>
          <circle id="椭圆形备份-30" stroke="#C2DBFF" stroke-width="1.99958719" cx="21.9954591" cy="2.99938078" r="1.99958719"></circle>
          <circle id="椭圆形备份-51" stroke="#C2DBFF" stroke-width="1.99958719" cx="21.9954591" cy="36.992363" r="1.99958719"></circle>
          <circle id="椭圆形备份-40" stroke="#C2DBFF" stroke-width="1.99958719" cx="78.9836939" cy="2.99938078" r="1.99958719"></circle>
          <circle id="椭圆形备份-52" stroke="#C2DBFF" stroke-width="1.99958719" cx="78.9836939" cy="36.992363" r="1.99958719"></circle>
        </g>
        <path d="M0,133.972342 C16.6647997,89.8501142 39.3289272,63.777889 67.9923826,55.7556659 C110.987566,43.7223312 110.917205,101.963671 147.336719,101.963671 C183.756233,101.963671 199.084515,7.12093806 250.525343,0.602881751 C301.96617,-5.91517455 276.892458,42.3184421 304.965834,53.7501101 C323.681417,61.3712221 325.944954,88.1119659 311.756443,133.972342 L0,133.972342 Z" id="路径-17备份-2" fill="url(#linearGradient-1)" opacity="0.900000036"></path>
        <g id="编组-15" transform="translate(101.978947, 31.993395)">
          <path d="M0,13.9971103 L131.972754,13.9971103 L131.972754,97.9797722 C131.972754,100.188455 130.182263,101.978947 127.97358,101.978947 L3.99917437,101.978947 C1.79049136,101.978947 8.11730403e-15,100.188455 0,97.9797722 L0,13.9971103 L0,13.9971103 Z" id="矩形备份-43" fill="#CFE3FF"></path>
          <path d="M52.9890605,25.9946334 L118.975438,25.9946334 C120.63195,25.9946334 121.974818,27.3375019 121.974818,28.9940142 L121.974818,86.9820426 C121.974818,88.6385549 120.63195,89.9814234 118.975438,89.9814234 L52.9890605,89.9814234 C51.3325482,89.9814234 49.9896797,88.6385549 49.9896797,86.9820426 L49.9896797,28.9940142 C49.9896797,27.3375019 51.3325482,25.9946334 52.9890605,25.9946334 Z" id="矩形备份-44" fill="#FFFFFF"></path>
          <path d="M12.9973167,25.9946334 L40.9915373,25.9946334 C42.6480496,25.9946334 43.9909181,27.3375019 43.9909181,28.9940142 L43.9909181,86.9820426 C43.9909181,88.6385549 42.6480496,89.9814234 40.9915373,89.9814234 L12.9973167,89.9814234 C11.3408045,89.9814234 9.99793593,88.6385549 9.99793593,86.9820426 L9.99793593,28.9940142 C9.99793593,27.3375019 11.3408045,25.9946334 12.9973167,25.9946334 Z" id="矩形备份-45" fill="#FFFFFF"></path>
          <circle id="椭圆形备份-55" fill="#CFE3FF" cx="27.9942206" cy="41.9913309" r="6.99855515"></circle>
          <path d="M18.9960783,66.9861708 L30.9936014,66.9861708 C32.0979429,66.9861708 32.9931886,67.8814164 32.9931886,68.9857579 C32.9931886,70.0900995 32.0979429,70.9853451 30.9936014,70.9853451 L18.9960783,70.9853451 C17.8917368,70.9853451 16.9964911,70.0900995 16.9964911,68.9857579 C16.9964911,67.8814164 17.8917368,66.9861708 18.9960783,66.9861708 Z" id="矩形备份-49" fill="#CFE3FF"></path>
          <path d="M18.9960783,58.987822 L36.992363,58.987822 C38.0967045,58.987822 38.9919501,59.8830677 38.9919501,60.9874092 C38.9919501,62.0917507 38.0967045,62.9869964 36.992363,62.9869964 L18.9960783,62.9869964 C17.8917368,62.9869964 16.9964911,62.0917507 16.9964911,60.9874092 C16.9964911,59.8830677 17.8917368,58.987822 18.9960783,58.987822 Z" id="矩形备份-55" fill="#CFE3FF"></path>
          <path d="M99.9793593,33.9929822 L113.97647,33.9929822 C115.080811,33.9929822 115.976057,34.8882279 115.976057,35.9925694 C115.976057,37.0969109 115.080811,37.9921566 113.97647,37.9921566 L99.9793593,37.9921566 C98.8750178,37.9921566 97.9797722,37.0969109 97.9797722,35.9925694 C97.9797722,34.8882279 98.8750178,33.9929822 99.9793593,33.9929822 Z" id="矩形备份-56" fill="#CFE3FF"></path>
          <path d="M18.9960783,74.9845195 L34.9927758,74.9845195 C36.0971173,74.9845195 36.992363,75.8797652 36.992363,76.9841067 C36.992363,78.0884482 36.0971173,78.9836939 34.9927758,78.9836939 L18.9960783,78.9836939 C17.8917368,78.9836939 16.9964911,78.0884482 16.9964911,76.9841067 C16.9964911,75.8797652 17.8917368,74.9845195 18.9960783,74.9845195 Z" id="矩形备份-57" fill="#CFE3FF"></path>
          <path d="M3.99917437,0 L127.97358,0 C130.182263,4.82449931e-16 131.972754,1.79049136 131.972754,3.99917437 L131.972754,16.9964911 L131.972754,16.9964911 L0,16.9964911 L0,3.99917437 C7.10366638e-16,1.79049136 1.79049136,2.18208533e-15 3.99917437,0 Z" id="矩形备份-58" fill="url(#linearGradient-2)"></path>
          <g id="编组-9备份" transform="translate(54.988648, 42.991125)" fill-rule="nonzero">
            <path d="M18.9686867,0.499896797 C23.4662171,0.499896797 25.5031011,3.0382106 27.5367854,9.27359012 L27.8284301,10.1944296 C28.05343,10.9281194 28.7849953,13.3250899 29.0417072,14.1246252 C29.5649568,15.7542989 30.0556156,17.1167575 30.6025808,18.413074 C35.0609939,28.9795877 43.4814246,34.492879 60.9874092,34.492879 C61.8156653,34.492879 62.4870996,35.1643132 62.4870996,35.9925694 C62.4870996,36.8208255 61.8156653,37.4922598 60.9874092,37.4922598 C42.2825476,37.4922598 32.7691577,31.2633515 27.8391211,19.5790825 C27.3185389,18.3452941 26.8503802,17.0688427 26.3677243,15.6011787 L26.1065129,14.7916489 C25.750875,13.6638087 24.9706536,11.1022933 24.9043677,10.8902489 L24.6873736,10.2090496 C23.0389958,5.13697455 21.7158696,3.49927758 18.9686867,3.49927758 C14.6790613,3.49927758 13.1925473,7.27896076 11.8754478,18.7032843 L11.5367776,21.6339128 C10.9527164,26.4880043 10.5018492,28.8560665 9.60616012,31.2857626 C8.1375743,35.2695303 5.69396179,37.4922598 1.99958719,37.4922598 C1.17133105,37.4922598 0.499896797,36.8208255 0.499896797,35.9925694 C0.499896797,35.1643132 1.17133105,34.492879 1.99958719,34.492879 C6.06110432,34.492879 7.46067402,30.8412953 8.76437022,19.5147203 L9.00497271,17.4141364 C9.64068679,11.999717 10.1202355,9.39077046 11.1079312,6.78028768 C12.6341869,2.74638937 15.1650469,0.499896797 18.9686867,0.499896797 Z" id="路径-5" fill="#3689FF"></path>
            <path d="M31.4934982,9.49803914 C37.0414472,9.49803914 40.0490558,12.4439196 44.1359497,19.8352611 L45.7366165,22.7728352 C50.3478889,31.1632361 54.0077593,34.492879 60.9874092,34.492879 C61.8156653,34.492879 62.4870996,35.1643132 62.4870996,35.9925694 C62.4870996,36.8208255 61.8156653,37.4922598 60.9874092,37.4922598 C56.3766597,37.4922598 52.667779,36.0105864 49.5745214,33.1964312 C47.3819266,31.2016728 45.7147353,28.8583438 43.619594,25.1374534 L42.8140607,23.6791872 L41.7239871,21.6739205 C38.0180585,14.8930417 35.6513905,12.4974199 31.4934982,12.4974199 C27.6571857,12.4974199 25.5528922,14.5442489 22.5561938,20.3812892 L20.6586312,24.1756261 C16.0042695,33.316557 11.2456845,37.4922598 1.99958719,37.4922598 C1.17133105,37.4922598 0.499896797,36.8208255 0.499896797,35.9925694 C0.499896797,35.1643132 1.17133105,34.492879 1.99958719,34.492879 C9.74709096,34.492879 13.6611794,31.1678833 17.7828954,23.2097953 L19.5095447,19.758407 C23.1750414,12.4292425 25.9772354,9.49803914 31.4934982,9.49803914 Z" id="路径-5" fill="#38DBBA"></path>
          </g>
          <circle id="椭圆形备份-56" fill="#FAFCFF" cx="8.99814234" cy="7.99834875" r="2.99938078"></circle>
          <circle id="椭圆形备份-57" fill="#FAFCFF" cx="18.9960783" cy="7.99834875" r="2.99938078"></circle>
          <circle id="椭圆形备份-58" fill="#FAFCFF" cx="28.9940142" cy="7.99834875" r="2.99938078"></circle>
        </g>
        <g id="编组-2" transform="translate(202.958099, 98.979566)">
          <circle id="椭圆形备份-67" fill="#F79F52" cx="21.9954591" cy="21.9954591" r="21.9954591"></circle>
          <line x1="22.4953559" y1="11.9975231" x2="22.4953559" y2="25.9946334" id="路径-16备份-4" stroke="#FFFFFF" stroke-width="3.99917437" transform="translate(22.495356, 18.996078) scale(-1, 1) translate(-22.495356, -18.996078) "></line>
          <line x1="22.4953559" y1="28.9940142" x2="22.4953559" y2="32.9931886" id="路径-16备份-5" stroke="#FFFFFF" stroke-width="3.99917437" transform="translate(22.495356, 30.993601) scale(-1, 1) translate(-22.495356, -30.993601) "></line>
        </g>
        <g id="编组-21" transform="translate(202.958099, 98.979566)">
          <circle id="椭圆形备份-22" fill="#EE5C5C" cx="21.9954591" cy="21.9954591" r="21.9954591"></circle>
          <polygon id="路径-16" fill="#FFFFFF" fill-rule="nonzero" points="16.4108256 13.5829822 31.4077295 28.5798861 28.5798861 31.4077295 13.5829822 16.4108256"></polygon>
          <polygon id="路径-16" fill="#FFFFFF" fill-rule="nonzero" transform="translate(22.495356, 22.495356) scale(-1, 1) translate(-22.495356, -22.495356) " points="16.4108256 13.5829822 31.4077295 28.5798861 28.5798861 31.4077295 13.5829822 16.4108256"></polygon>
        </g>
      </g>
    </g>
  </g>
</svg>
