<?xml version="1.0" encoding="UTF-8"?>
<svg xmlns="http://www.w3.org/2000/svg" xmlns:xlink="http://www.w3.org/1999/xlink" width="321px" height="140px" viewBox="0 0 321 140" version="1.1">
  <title>500-服务器出错</title>
  <defs>
    <linearGradient x1="0%" y1="53.2087054%" x2="98.2036683%" y2="53.2087054%" id="linearGradient-1">
      <stop stop-color="#EEFAFF" offset="0%"></stop>
      <stop stop-color="#EFF9FF" offset="100%"></stop>
    </linearGradient>
    <linearGradient x1="-4.36533505%" y1="1.91748971%" x2="100%" y2="98.4303498%" id="linearGradient-2">
      <stop stop-color="#5CA2FF" offset="0%"></stop>
      <stop stop-color="#1E7AFF" offset="100%"></stop>
    </linearGradient>
  </defs>
  <g id="页面-1" stroke="none" stroke-width="1" fill="none" fill-rule="evenodd">
    <g id="500-服务器出错备份" transform="translate(-55.000000, -110.000000)">
      <g id="500-服务器出错" transform="translate(55.000000, 110.000000)">
        <g id="编组-16" opacity="0.300000012" transform="translate(61.450258, 2.212721)">
          <circle id="椭圆形备份-29" fill="#C2DBFF" cx="2.98543017" cy="2.98543017" r="2.98543017"></circle>
          <circle id="椭圆形备份-41" stroke="#C2DBFF" stroke-width="1.99028678" cx="2.98543017" cy="36.8203055" r="1.99028678"></circle>
          <circle id="椭圆形备份-35" fill="#C2DBFF" cx="59.7086034" cy="2.98543017" r="2.98543017"></circle>
          <circle id="椭圆形备份-42" fill="#C2DBFF" cx="59.7086034" cy="36.8203055" r="2.98543017"></circle>
          <circle id="椭圆形备份-31" fill="#C2DBFF" cx="40.800879" cy="2.98543017" r="2.98543017"></circle>
          <circle id="椭圆形备份-43" fill="#C2DBFF" cx="40.800879" cy="36.8203055" r="2.98543017"></circle>
          <circle id="椭圆形备份-32" stroke="#C2DBFF" stroke-width="1.99028678" cx="2.98543017" cy="19.9028678" r="1.99028678"></circle>
          <circle id="椭圆形备份-45" fill="#C2DBFF" cx="2.98543017" cy="53.7377431" r="2.98543017"></circle>
          <circle id="椭圆形备份-37" stroke="#C2DBFF" stroke-width="1.99028678" cx="59.7086034" cy="19.9028678" r="1.99028678"></circle>
          <circle id="椭圆形备份-46" stroke="#C2DBFF" stroke-width="1.99028678" cx="59.7086034" cy="53.7377431" r="1.99028678"></circle>
          <circle id="椭圆形备份-33" fill="#C2DBFF" cx="21.8931546" cy="19.9028678" r="2.98543017"></circle>
          <circle id="椭圆形备份-47" stroke="#C2DBFF" stroke-width="1.99028678" cx="21.8931546" cy="53.7377431" r="1.99028678"></circle>
          <circle id="椭圆形备份-38" fill="#C2DBFF" cx="78.6163279" cy="19.9028678" r="2.98543017"></circle>
          <circle id="椭圆形备份-48" fill="#C2DBFF" cx="78.6163279" cy="53.7377431" r="2.98543017"></circle>
          <circle id="椭圆形备份-34" stroke="#C2DBFF" stroke-width="1.99028678" cx="40.800879" cy="19.9028678" r="1.99028678"></circle>
          <circle id="椭圆形备份-49" fill="#C2DBFF" cx="40.800879" cy="53.7377431" r="2.98543017"></circle>
          <circle id="椭圆形备份-30" stroke="#C2DBFF" stroke-width="1.99028678" cx="21.8931546" cy="2.98543017" r="1.99028678"></circle>
          <circle id="椭圆形备份-51" stroke="#C2DBFF" stroke-width="1.99028678" cx="21.8931546" cy="36.8203055" r="1.99028678"></circle>
          <circle id="椭圆形备份-40" stroke="#C2DBFF" stroke-width="1.99028678" cx="78.6163279" cy="2.98543017" r="1.99028678"></circle>
          <circle id="椭圆形备份-52" stroke="#C2DBFF" stroke-width="1.99028678" cx="78.6163279" cy="36.8203055" r="1.99028678"></circle>
        </g>
        <path d="M0.746511628,134.089318 C17.3338006,90.1723106 39.8925136,64.2213516 68.4226506,56.2364411 C111.217856,44.2590754 111.147822,102.229525 147.397944,102.229525 C183.648065,102.229525 198.905052,7.82792134 250.10662,1.34018157 C301.308188,-5.14755819 276.351098,42.8617161 304.2939,54.2402135 C322.922434,61.8258784 325.175443,88.4422467 311.052925,134.089318 L0.746511628,134.089318 Z" id="路径-17备份-2" fill="url(#linearGradient-1)" opacity="0.900000036"></path>
        <g id="服务器" transform="translate(105.236568, 31.589549)">
          <rect id="矩形备份-54" fill="#CFE3FF" x="6.27610111" y="31.3805055" width="97.2795672" height="39.7486404"></rect>
          <path d="M107.739736,71.1291459 C108.895133,71.1291459 109.831769,72.0657813 109.831769,73.2211796 L109.831769,100.417618 C109.831769,101.573016 108.895133,102.509651 107.739736,102.509651 L2.0920337,102.509651 C0.936635392,102.509651 0,101.573016 0,100.417618 L0,73.2211796 C0,72.0657813 0.936635392,71.1291459 2.0920337,71.1291459 L107.739736,71.1291459 Z M107.739736,35.564573 C108.895133,35.564573 109.831769,36.5012083 109.831769,37.6566067 L109.831769,64.8530448 C109.831769,66.0084431 108.895133,66.9450785 107.739736,66.9450785 L2.0920337,66.9450785 C0.936635392,66.9450785 0,66.0084431 0,64.8530448 L0,37.6566067 C0,36.5012083 0.936635392,35.564573 2.0920337,35.564573 L107.739736,35.564573 Z M107.739736,0 C108.895133,0 109.831769,0.936635392 109.831769,2.0920337 L109.831769,29.2884718 C109.831769,30.4438702 108.895133,31.3805055 107.739736,31.3805055 L2.0920337,31.3805055 C0.936635392,31.3805055 0,30.4438702 0,29.2884718 L0,2.0920337 C0,0.936635392 0.936635392,0 2.0920337,0 L107.739736,0 Z" id="形状结合" fill="url(#linearGradient-2)"></path>
          <path d="M12.5522022,10.4601685 C14.2852997,10.4601685 15.6902528,11.8651216 15.6902528,13.5982191 C15.6902528,15.3313165 14.2852997,16.7362696 12.5522022,16.7362696 C10.8191048,16.7362696 9.41415166,15.3313165 9.41415166,13.5982191 C9.41415166,11.8651216 10.8191048,10.4601685 12.5522022,10.4601685 Z M23.0123707,10.4601685 C24.7454682,10.4601685 26.1504213,11.8651216 26.1504213,13.5982191 C26.1504213,15.3313165 24.7454682,16.7362696 23.0123707,16.7362696 C21.2792733,16.7362696 19.8743202,15.3313165 19.8743202,13.5982191 C19.8743202,11.8651216 21.2792733,10.4601685 23.0123707,10.4601685 Z M33.4725392,10.4601685 C35.2056367,10.4601685 36.6105898,11.8651216 36.6105898,13.5982191 C36.6105898,15.3313165 35.2056367,16.7362696 33.4725392,16.7362696 C31.7394418,16.7362696 30.3344887,15.3313165 30.3344887,13.5982191 C30.3344887,11.8651216 31.7394418,10.4601685 33.4725392,10.4601685 Z" id="形状结合" fill="#CFE3FF"></path>
        </g>
        <g id="编组-2" transform="translate(188.828612, 95.278726)">
          <circle id="椭圆形备份-67" fill="#F79F52" cx="21.8931546" cy="21.8931546" r="21.8931546"></circle>
          <line x1="22.3907263" y1="11.9417207" x2="22.3907263" y2="25.8737282" id="路径-16备份-4" stroke="#FFFFFF" stroke-width="3.98057356" transform="translate(22.390726, 18.907724) scale(-1, 1) translate(-22.390726, -18.907724) "></line>
          <line x1="22.3907263" y1="28.8591583" x2="22.3907263" y2="32.8397319" id="路径-16备份-5" stroke="#FFFFFF" stroke-width="3.98057356" transform="translate(22.390726, 30.849445) scale(-1, 1) translate(-22.390726, -30.849445) "></line>
        </g>
      </g>
    </g>
  </g>
</svg>
