<?xml version="1.0" encoding="UTF-8"?>
<svg xmlns="http://www.w3.org/2000/svg" xmlns:xlink="http://www.w3.org/1999/xlink" width="128px" height="128px" viewBox="0 0 128 128" version="1.1">
  <title>通用/设备/路由器</title>
  <g id="通用/设备/路由器" stroke="none" stroke-width="1" fill="none" fill-rule="evenodd">
    <path d="M48,22 C49.6568542,22 51,23.3431458 51,25 L51,88 C51,89.6568542 49.6568542,91 48,91 C46.3431458,91 45,89.6568542 45,88 L45,25 C45,23.3431458 46.3431458,22 48,22 Z M34,22 C35.6568542,22 37,23.3431458 37,25 L37,88 C37,89.6568542 35.6568542,91 34,91 C32.3431458,91 31,89.6568542 31,88 L31,25 C31,23.3431458 32.3431458,22 34,22 Z M76.4758646,21.590572 C81.2576449,26.4047692 84,32.9688043 84,39.971464 C84,47.0050284 81.2332577,53.5955169 76.4141626,58.4142646 C75.6330858,59.195285 74.3667559,59.1952393 73.5857354,58.4141626 C72.804715,57.6330858 72.8047607,56.3667559 73.5858374,55.5857354 C77.6594993,51.5123674 80,45.9372029 80,39.971464 C80,34.0318729 77.6801117,28.4790443 73.6378987,24.409428 C72.8594931,23.6257454 72.863771,22.3594227 73.6474536,21.5810171 C74.4311362,20.8026114 75.697459,20.8068893 76.4758646,21.590572 Z M70.5359676,27.6796483 C73.3794496,30.9148027 75,35.3080632 75,39.9808715 C75,44.6752246 73.3643862,49.0870994 70.4975419,52.3256577 C69.7654014,53.1527272 68.5014119,53.2296824 67.6743423,52.4975419 C66.8472728,51.7654014 66.7703176,50.5014119 67.5024581,49.6743423 C69.714843,47.1751005 71,43.7085413 71,39.9808715 C71,36.2700632 69.7265177,32.8176932 67.5315233,30.3203517 C66.8023132,29.4906973 66.8837394,28.226988 67.7133937,27.4977779 C68.5430481,26.7685677 69.8067575,26.8499939 70.5359676,27.6796483 Z M64.4328201,33.6046411 C66.0648464,35.2804824 66.9999989,37.6011004 66.9999989,40.0694545 C66.9999989,42.4480392 66.1319463,44.6909876 64.603905,46.353436 C63.8564229,47.1666668 62.5912151,47.2199667 61.7779843,46.4724846 C60.9647535,45.7250026 60.9114536,44.4597948 61.6589357,43.646564 C62.5061618,42.7248156 62.9999989,41.4487959 62.9999989,40.0694545 C62.9999989,38.6393359 62.4688283,37.3212139 61.5671799,36.3953589 C60.7965444,35.6040342 60.8133164,34.3378153 61.6046411,33.5671799 C62.3959658,32.7965444 63.6621847,32.8133164 64.4328201,33.6046411 Z" id="形状结合" fill="#CCDDFF"></path>
    <rect id="矩形备份-53" fill="#4785FF" x="16" y="80" width="96" height="28" rx="2"></rect>
    <circle id="椭圆形备份-53" fill="#FAFCFF" opacity="0.300000012" cx="77" cy="94" r="3"></circle>
    <circle id="椭圆形备份-54" fill="#FAFCFF" opacity="0.300000012" cx="88" cy="94" r="3"></circle>
    <circle id="椭圆形备份-54" fill="#38DBBA" fill-rule="nonzero" cx="99" cy="94" r="3"></circle>
    <rect id="矩形" fill="#CCDDFF" x="27" y="91" width="28" height="6" rx="3"></rect>
  </g>
</svg>
