<svg width="18" height="16" viewBox="0 0 18 16" xmlns="http://www.w3.org/2000/svg"><g fill-rule="nonzero"><path d="M15.75 13.714H2.25c-1.046 0-2.25-.637-2.25-1.713V1.95C0 .874.852 0 1.897 0h14.205C17.148 0 18 .874 18 1.95V12c0 1.076-1.204 1.713-2.25 1.713zm1.125-11.597a.968.968 0 0 0-.957-.974H2.083a.968.968 0 0 0-.958.974v8.339c0 .535.43.973.958.973h13.835a.968.968 0 0 0 .957-.974V2.117zM5.154 14.857h7.692c.361 0 .654.256.654.572 0 .315-.293.571-.654.571H5.154c-.361 0-.654-.256-.654-.571 0-.316.293-.572.654-.572z"/><path d="M5.182 8.364H3V4h2.101v.767h-1.39v.987H5v.736H3.71v1.1h1.47zM7.364 4v4.364H6.273V4zM8.455 8.211v-.763c.159.049.37.09.632.125s.515.052.758.052c.333 0 .565-.04.699-.122.133-.081.2-.222.2-.421a.535.535 0 0 0-.07-.296.543.543 0 0 0-.264-.183 4.067 4.067 0 0 0-.586-.162c-.356-.073-.629-.155-.818-.247a.883.883 0 0 1-.407-.36c-.082-.149-.123-.351-.123-.607 0-.428.147-.739.442-.934.295-.195.733-.293 1.313-.293.253 0 .49.014.71.043.22.028.398.065.533.11v.72a3.446 3.446 0 0 0-.554-.107 5.19 5.19 0 0 0-.654-.046c-.294 0-.505.035-.632.104-.126.07-.19.197-.19.384 0 .106.02.189.06.248.04.059.12.111.24.158.119.047.305.097.558.15.388.081.683.174.885.277a.909.909 0 0 1 .42.4c.08.163.12.383.12.66 0 .422-.147.739-.442.948-.295.21-.763.315-1.405.315a6.86 6.86 0 0 1-.793-.046 4.974 4.974 0 0 1-.632-.107zM12.198 6.182c0-.782.186-1.342.559-1.678.372-.336.91-.504 1.616-.504.41 0 .758.045 1.046.134v.752a3.195 3.195 0 0 0-.993-.147c-.292 0-.528.045-.71.135a.835.835 0 0 0-.4.45c-.088.209-.131.493-.131.852 0 .379.042.672.127.88a.775.775 0 0 0 .392.434c.176.081.41.122.702.122.383 0 .738-.055 1.065-.165v.74a2.84 2.84 0 0 1-.503.128 3.58 3.58 0 0 1-.601.049c-.475 0-.868-.061-1.18-.184a1.4 1.4 0 0 1-.728-.663c-.174-.32-.26-.765-.26-1.335z"/></g></svg>