<svg width="16" height="20" viewBox="0 0 16 20" xmlns="http://www.w3.org/2000/svg"><path d="M8 0A8 8 0 0 0 .962 11.807c.868 1.724 3.13 5.56 7.038 7.885 3.907-2.324 6.17-6.16 7.037-7.884A8 8 0 0 0 8 0zm0 14.885A6.796 6.796 0 1 1 8 1.292a6.796 6.796 0 0 1 0 13.593zm4.644-9.844h-4.35c-.203 0-.368.149-.368.334 0 .184.165.334.368.334l4.35.001c.203 0 .368-.15.368-.334 0-.185-.165-.335-.368-.335zm-1.07 1.869l-3.28-.001c-.203 0-.368.15-.368.334 0 .185.165.334.368.334l3.28.001c.203 0 .368-.15.368-.334 0-.184-.165-.334-.368-.334zM10.56 8.778l-2.266-.001c-.203 0-.367.15-.367.334 0 .185.164.335.367.335h2.266c.203 0 .367-.149.367-.333 0-.185-.164-.335-.367-.335zM6.406 3.801a.23.23 0 0 0-.313.084l-.033.058a.23.23 0 0 0 .084.313l.687.397.083.048-2.08 3.602-.668-.386a.23.23 0 0 0-.314.084l-.098.17V8.17l-.382.66c-.074.13-.357.821-.36 1.124-.004.303-.155 1.222.36 1.52.516.297 1.236-.293 1.497-.448.26-.154.718-.745.793-.873.05-.09.213-.37.309-.535l.072-.126.098-.17a.23.23 0 0 0-.084-.313l-.667-.385 2.08-3.602c.08.046.05.03.08.046l.216.125a.558.558 0 0 1 .435-.356L6.406 3.801z" fill-rule="nonzero"/></svg>