<svg width="18" height="20" viewBox="0 0 18 20" xmlns="http://www.w3.org/2000/svg"><g fill-rule="nonzero" fill="none"><path d="M17.387 9.023c-.12 2.686-1.046 5.108-2.49 6.893-1.509 1.867-3.59 3.037-5.897 3.037-2.308 0-4.388-1.17-5.897-3.037C1.659 14.13.733 11.709.613 9.023z" stroke="#363636" stroke-width="1.2"/><path d="M13.599 13.988c0 1.37-2.059 2.48-4.6 2.48-2.539 0-4.598-1.11-4.598-2.48 0-1.37 2.059-2.48 4.599-2.48s4.599 1.11 4.599 2.48z" fill="#363636"/><path fill="#363636" d="M8.634 5.933h.732v7.025h-.732z"/><path d="M2.389 8.423S6.113 7.425 7.667 6.3c.504-.366.967-.366.967-.366v2.49H2.389zm13.222 0s-3.724-.998-5.278-2.124c-.504-.366-.967-.366-.967-.366v2.49h6.245zM9.37 2.572c-.142.132-.731.717-.517.951-.788-.862-1.406-2.507-.108-3.309.56-.346 1.553-.324 1.766.453.235.855-.623 1.426-1.141 1.905-.066.062.134-.124 0 0zm2.01.503l-.062-.05a.803.803 0 0 0-.941-.015c.058-.517.387-.988.904-1.1.51-.11 1.153.074 1.276.635.092.42-.209.865-.678.819-.219-.022-.347-.16-.5-.289zM6.978 1.942c.251.12.521.313.66.56.117.205.328.543.302.783-.248-.252-.712-.313-1.004-.129-.313.196-.493.556-.91.576-.36.017-.607-.307-.616-.655-.012-.48.257-1.016.746-1.145.206-.055.624-.086.822.01zm3.243 2.56c-.07-.136-.387-.703-.61-.592.818-.412 2.188-.531 2.52.617.144.495-.083 1.24-.714 1.237-.695-.003-.944-.771-1.196-1.263-.033-.063.065.128 0 0zm-2.638.529l.002-.092a.938.938 0 0 1 .694-.855c-.507-.336-1.174-.395-1.664-.017-.482.373-.8 1.086-.39 1.618.306.4.93.463 1.241.008.145-.211.118-.429.117-.662z" /></g></svg>