<svg width="18" height="18" viewBox="0 0 18 18" xmlns="http://www.w3.org/2000/svg"><path d="M18 9.095l-2.77.596v3.462l-4.846-1.386v-1.384h.693V8.999l2.62-.566 1.507-1.415-.482-2.974-8.964 1.424a3.611 3.611 0 0 0-.232-.61l10.03-1.595-1.63-2.849L12.828 0 3.45 1.488l-.885.14-1.01.16L0 2.036l.057 1.418 1.733 1.89.783-.109-.38-2.347-1.465.233-.02-.509 2.128-.337.122.045 1.495 1.774c-.469.188-.71 1.105-.541 2.144.178 1.116.761 1.95 1.298 1.864.256-.04.456-.281.575-.643l.143.883-1.484 1.563L8.307 9v1.385H9v2.077l6.23 2.075v2.77l2.77.692V9.095zM4.744 5.208c.233-.036.484.325.563.808.077.483-.048.903-.282.94-.232.038-.483-.323-.562-.806-.077-.484.049-.904.281-.942zm.074 4.303L4.3 9.98 2.557 8.905l-.517-3.2.677-.108.467 2.898 1.634 1.016z"  fill-rule="nonzero"/></svg>