<svg width="28" height="28" viewBox="0 0 28 28" xmlns="http://www.w3.org/2000/svg"><g fill-rule="evenodd"><path d="M13.88 12.912c.224-.503.41-.844.559-1.02.558-.68.856-1.587.856-2.607 0-2.117-1.49-3.817-3.314-3.817-1.825 0-3.315 1.738-3.315 3.854 0 1.02.335 1.928.857 2.608.335.189.558.605.558 1.02 0 .378-.186.718-.484.945v.038c-.037 0-.074.038-.074.038a1.114 1.114 0 0 1-.596.188c-1.416.492-2.607 1.248-3.315 2.192h.037c-.186.265-.26.567-.26.87 0 .906.744 1.662 1.676 1.662h2.827l3.988-5.97z" fill-rule="nonzero"/><path d="M18.689 9.1C23.831 9.1 28 13.33 28 18.55c0 5.219-4.169 9.45-9.311 9.45s-9.311-4.231-9.311-9.45c0-5.22 4.169-9.45 9.311-9.45zm0 2.774c-3.632 0-6.576 2.989-6.576 6.676 0 3.686 2.944 6.675 6.576 6.675 3.632 0 6.576-2.989 6.576-6.675 0-3.687-2.944-6.676-6.576-6.676z" fill-rule="nonzero"/><path d="M17.678 13.652c0 .566.453 1.026 1.011 1.026.52 0 .95-.4 1.005-.914v-.006c.603.13 1.164.374 1.66.708l.01-.012-.012.014c-.313.402-.29.98.075 1.344.358.358.922.387 1.323.09.259.408.46.858.59 1.337l.07.29c-.51.057-.905.492-.905 1.02 0 .531.397.967.906 1.02-.101.485-.273.944-.504 1.364l-.146.246-.03-.025a1.02 1.02 0 0 0-1.344.094 1.02 1.02 0 0 0-.05 1.397 4.744 4.744 0 0 1-1.643.696l.006.106c0-.566-.453-1.025-1.011-1.025-.522 0-.952.402-1.005.917a4.734 4.734 0 0 1-1.66-.706l-.083.094c.4-.4.405-1.045.01-1.44a1.016 1.016 0 0 0-1.322-.09 4.857 4.857 0 0 1-.592-1.336l-.07-.293a1.02 1.02 0 0 0 .906-1.018c0-.53-.397-.967-.906-1.02a4.9 4.9 0 0 1 .504-1.363l.145-.248.03.027a1.02 1.02 0 0 0 1.345-.095c.386-.386.404-1 .05-1.396a4.744 4.744 0 0 1 1.643-.697l-.006-.106zm1.01 2.744c-1.171 0-2.121.964-2.121 2.154s.95 2.153 2.122 2.153 2.122-.964 2.122-2.153c0-1.19-.95-2.154-2.122-2.154z"/><path d="M20.982 0c1.916 0 3.477 1.542 3.544 3.47l.003.129v10.448l-.452-.369c-3.845-3.138-7.322-3.138-10.535-.016-3.15 3.06-2.787 6.543 1.151 10.578l.164.166.48.483H3.547c-1.916 0-3.478-1.542-3.545-3.47L0 21.289V3.6C0 1.654 1.52.07 3.42.002L3.547 0h17.435zm0 2.775H3.547a.817.817 0 0 0-.808.745l-.004.079v17.69c0 .429.322.78.734.82l.078.005h6.885l-.036-.218c-.683-4.187-.074-7.363 1.843-9.508l.127-.138c2.019-2.148 5.102-2.89 9.223-2.247l.204.033V3.6a.82.82 0 0 0-.733-.82l-.078-.004z" fill-rule="nonzero"/></g></svg>