<svg width="17" height="18" viewBox="0 0 17 18" xmlns="http://www.w3.org/2000/svg"><path d="M15.726 9.62a5.548 5.548 0 0 0-1.22-.002V5.99H6.044v10.784H9.98c.156.436.368.848.627 1.226H5.492a.63.63 0 0 1-.63-.629L4.836 5.394a.6.6 0 0 1 .6-.601h9.646c.355 0 .644.288.644.644V9.62zM7.852 7.187h4.846a.6.6 0 1 1 0 1.199H7.852a.6.6 0 0 1 0-1.199zm0 2.396h2.428a.6.6 0 1 1 0 1.2H7.852a.6.6 0 0 1 0-1.2zM0 0h9.025a.645.645 0 1 1 0 1.29H1.258v10.062a.629.629 0 1 1-1.258 0V0zm2.418 2.396h9.025a.645.645 0 1 1 0 1.29H3.674v10.062a.629.629 0 1 1-1.256 0V2.396zm11.264 13.377a4.84 4.84 0 0 0 1.115-1.114.115.115 0 0 1 .175-.014l1.662 1.662a.48.48 0 0 1 0 .678l-.622.624a.48.48 0 0 1-.68 0l-1.664-1.666a.112.112 0 0 1 .014-.17zm.13-.856c-1.02 1.021-2.664 1.033-3.67.028a2.575 2.575 0 0 1-.561-2.776.084.084 0 0 1 .138-.027l.783.812a.36.36 0 0 0 .514.005l.803-.803a.36.36 0 0 0 0-.509l-.804-.804a.092.092 0 0 1 .031-.15 2.576 2.576 0 0 1 2.794.555c1.005 1.005.993 2.65-.028 3.67zm2.13 1.993a.422.422 0 0 0 .005-.597.422.422 0 0 0-.598.005.422.422 0 0 0-.005.597.423.423 0 0 0 .598-.005z"  fill-rule="nonzero"/></svg>