<svg width="28" height="28" viewBox="0 0 28 28" xmlns="http://www.w3.org/2000/svg"><g fill-rule="evenodd"><path d="M3.19 0l14.276.002a.987.987 0 0 1 .728.301l1.545 1.588c.438.446.818.83 1.201 1.211l2.58 2.561.703.702c.142.143.24.324.285.546l.015.098v4.367A9.36 9.36 0 0 1 28 18.683C28 23.828 23.898 28 18.839 28c-2.637 0-5.014-1.133-6.685-2.947l-8.978-.001a3.183 3.183 0 0 1-3.173-3.065L0 21.862V3.187A3.19 3.19 0 0 1 3.065.002L3.19 0zm15.649 11.612c-3.839 0-6.951 3.166-6.951 7.07 0 3.905 3.112 7.07 6.95 7.07 3.84 0 6.952-3.165 6.952-7.07 0-3.904-3.112-7.07-6.951-7.07zm-2.366-9.097H3.184a.683.683 0 0 0-.684.606l-.004.069v18.67c.001.35.268.64.61.674l.07.003h7.32a9.418 9.418 0 0 1-.818-3.854 9.34 9.34 0 0 1 4.74-8.163c1.223-.81 2.691-1.193 4.4-1.155h.02c.658 0 1.3.07 1.918.204.366.066.741.149 1.126.247l.145.038V8.098H17.48a1.01 1.01 0 0 1-1.004-.93l-.003-.084v-4.57zM7.66 14.219c.761 0 1.236.525 1.236 1.258a1.25 1.25 0 0 1-1.148 1.254l-.088.003H5.847c-.857 0-1.321-.497-1.321-1.257 0-.729.423-1.216 1.215-1.255l.106-.003H7.66zm2.819-4.578c.779 0 1.236.516 1.236 1.258a1.25 1.25 0 0 1-1.148 1.254l-.088.003H5.847c-.857 0-1.321-.496-1.321-1.257 0-.729.423-1.216 1.215-1.255l.106-.003h4.632zm1.892-4.647c.68 0 1.239.567 1.239 1.258 0 .66-.505 1.201-1.15 1.253l-.089.004H5.587A1.246 1.246 0 0 1 4.35 6.252c0-.66.505-1.202 1.147-1.254l.088-.004h6.787zm6.115-1.53v2.605h2.591l-2.59-2.605z" fill-rule="nonzero"/><text font-family="AlibabaPuHuiTi_2_95_ExtraBold, Alibaba PuHuiTi 2.0" font-size="10" font-weight="700"><tspan x="14" y="22">井</tspan></text></g></svg>