<svg width="28" height="28" viewBox="0 0 28 28" xmlns="http://www.w3.org/2000/svg"><g fill-rule="nonzero"><path d="M21.548 0c1.57 0 2.86 1.23 2.974 2.8l.006.11.002.112v8.168A9.486 9.486 0 0 1 28 18.55c0 5.218-4.168 9.45-9.313 9.45-2.776 0-5.268-1.232-6.974-3.187H2.982c-1.57 0-2.86-1.23-2.974-2.801l-.006-.11L0 21.79V3.022C0 1.434 1.211.124 2.763.008l.109-.006.11-.002h18.566zm-2.86 11.35c-3.912 0-7.085 3.222-7.085 7.2 0 3.977 3.173 7.2 7.084 7.2 3.911 0 7.084-3.223 7.084-7.2 0-3.978-3.173-7.2-7.084-7.2zm.016-9.02l.024.107c.037.191.055.387.055.585 0 1.588-1.21 2.897-2.763 3.013l-.108.007-.11.002H8.39c-1.647 0-2.981-1.354-2.981-3.022 0-.198.019-.394.056-.585l.023-.107H2.982c-.331 0-.61.244-.667.563l-.008.065-.002.064V21.79c0 .34.24.625.551.681l.063.009.063.002h7.235a9.533 9.533 0 0 1-.843-3.932c0-5.218 4.168-9.45 9.313-9.45 1.253 0 2.447.25 3.538.705V3.022c0-.36-.27-.655-.612-.689l-.065-.003h-2.844zm-2.902 0H8.39a.684.684 0 0 0-.676.692c0 .34.24.624.551.68l.063.009.062.003h7.412a.684.684 0 0 0 .677-.692.684.684 0 0 0-.677-.692z"/><path d="M22.965 15.374L20.1 13.302a1.832 1.832 0 0 0-2.15 0l-2.864 2.072a1.36 1.36 0 0 0-.561 1.099v4.746c0 .747.608 1.356 1.355 1.356h6.289c.747 0 1.356-.609 1.356-1.356v-4.746c0-.434-.21-.844-.561-1.099zm-.901 5.266c0 .24-.195.435-.435.435h-1.346v-2.237a.975.975 0 0 0-.975-.974h-.726a.975.975 0 0 0-.975.974v2.237H16.35a.436.436 0 0 1-.436-.435v-3.85c0-.139.068-.27.18-.352l2.444-1.722a.81.81 0 0 1 .952 0l2.395 1.722c.113.081.18.213.18.353v3.85z"/></g></svg>