<svg width="18" height="19" viewBox="0 0 18 19" xmlns="http://www.w3.org/2000/svg"><g  fill-rule="nonzero"><path d="M8.564 15.512a7.057 7.057 0 1 1 6.967-7.058 7.014 7.014 0 0 1-6.967 7.058zm6.687-1.642a8.705 8.705 0 0 0 1.875-5.416 8.563 8.563 0 1 0-8.562 8.673 8.446 8.446 0 0 0 4.674-1.405c3.047 3.387 2.81 3.058 2.81 3.058L18 16.965l-2.75-3.096v.001z"/><path d="M13.724 8.856v1.255h-2.392v3.764h-1.326v-3.764h-2.72c-.07.563-.192 1.045-.364 1.448a4.324 4.324 0 0 1-.721 1.137c-.309.356-.73.757-1.26 1.203l-1.044-1.056c.476-.39.842-.71 1.096-.956.254-.246.455-.508.604-.785.149-.278.258-.608.328-.991H3.404V8.856h2.615c.008-.125.012-.325.012-.598v-1.76H3.873V5.22h2.158v-1.9l1.349.047V5.22h2.626V3.297l1.326.059V5.22h1.935V6.5h-1.935v2.357h2.392zm-3.718 0V6.499H7.38v1.63c0 .336-.004.578-.012.727h2.638z"/></g></svg>