<svg width="28" height="28" viewBox="0 0 28 28" xmlns="http://www.w3.org/2000/svg"><g fill-rule="nonzero"><path d="M24.47 0C26.42 0 28 1.65 28 3.684v15.72c0 2.034-1.58 3.684-3.53 3.684l-6.509-.001 3.827 2.663c.54.376.686 1.139.326 1.703-.346.54-1.03.703-1.563.385l-.069-.044-6.406-4.459-6.406 4.459c-.518.36-1.21.235-1.585-.273l-.047-.068a1.264 1.264 0 0 1 .261-1.654l.066-.049 3.825-2.663H3.53c-1.887 0-3.428-1.544-3.525-3.488L0 19.403V3.684C0 1.65 1.58 0 3.53 0zm0 2.456H3.53c-.65 0-1.177.55-1.177 1.228v15.72c0 .678.527 1.227 1.176 1.227h20.942c.65 0 1.176-.55 1.176-1.228V3.684c0-.678-.527-1.228-1.176-1.228z"/><path d="M20.39 15.77l-.27-1.44.99-.72.99.72v.9l-1.71.54zM5.9 18.47V3.53l3.42 5.4.99.27-.45 2.34 1.44 2.25-.9 1.89 1.8-2.07-1.8-2.43.9-1.62 1.62.54 1.26 2.79 4.41 1.98 3.42 3.51-16.11.09zm12.15-2.88l-3.87-1.8-1.8-2.97-.63-.27-.45.63 1.8 2.52-3.42 3.15.72-3.06-1.44-2.07.27-1.89-.54-.09L6.8 6.68v10.89l13.05-.09-1.8-1.89zm-2.07-3.15L17.06 11l1.08.54.09.81-.9 1.17-1.35-1.08zm-2.34-3.78l1.08-1.44 2.07.72v.81l-1.98 1.17-1.17-1.26zM9.23 6.68l.45-1.53h1.08l.54 1.08-.45.45H9.23z"/></g></svg>