<svg width="18" height="18" viewBox="0 0 18 18" xmlns="http://www.w3.org/2000/svg"><path d="M3.117 9.926a.597.597 0 0 1 .004-.844l3.102-3.07a.6.6 0 0 1 .657-.123l4.324 1.867 3.85-3.205a.598.598 0 0 1 .84.075.598.598 0 0 1-.076.84l-2.496 2.079h-.1a5.298 5.298 0 0 0-3.141 1.027l-3.305-1.43L3.962 9.93a.59.59 0 0 1-.423.17.575.575 0 0 1-.422-.174zm1.788-6.832a.596.596 0 0 0-.597-.598H2.966a.596.596 0 1 0 0 1.195h1.342c.33 0 .597-.267.597-.597zm3.07 10.554H1.959a.765.765 0 0 1-.765-.764V1.959c0-.422.343-.765.765-.765H16.04c.422 0 .765.343.765.765v6.975c.493.45.9.992 1.194 1.6V1.96C18 .879 17.12 0 16.041 0H1.96A1.96 1.96 0 0 0 0 1.959v10.925c0 1.079.88 1.959 1.959 1.959h6.346a5.196 5.196 0 0 1-.33-1.195zm.76 2.035H2.966a.596.596 0 1 0 0 1.194H9.77a5.213 5.213 0 0 1-1.035-1.194zm8.946-2.835a4.469 4.469 0 0 0-4.463-4.463 4.465 4.465 0 0 0-4.459 4.463 4.469 4.469 0 0 0 4.463 4.463c2.46 0 4.46-2.002 4.46-4.463zm-1.194 0c0 1.8-1.465 3.269-3.269 3.269a3.268 3.268 0 1 1 3.27-3.269zm-1.752 1.78a.598.598 0 0 0-.048-.844l-1.03-.924v-2.09a.596.596 0 1 0-1.195 0v2.357c0 .17.072.33.199.446l1.23 1.103a.602.602 0 0 0 .844-.048z" fill-rule="nonzero"/></svg>