<svg width="28" height="28" viewBox="0 0 28 28" xmlns="http://www.w3.org/2000/svg"><path d="M28 21.688h-2.334l-7.378-9.75-1.047-5.282H20v-2h-1.969V1.281H15V0h-2v1.281h-2.969v3.375H8v2h2.79l-1.037 5.238-7.412 9.793H0v2h2.234V28h1.407v-4.313h20.718V28h1.407v-4.313H28v-2zm-3.587 0h-4.191l-1.488-7.504 5.678 7.504zM12.622 7.709l.7.7-1.047 1.047.347-1.747zm-2.528 13.979l4.019-2.682 3.856 2.681h-7.875zm4.915-3.279l2.229-1.487.7 3.525-2.929-2.038zm1.172-6.806l-2.128 1.331-2.212-1.29.084-.425 2.103-2.103 2.069 2.065.084.422zm.21 1.047l.368 1.86-1.728-1.007 1.36-.853zm-3.294.884L11.234 14.7l.4-2.016 1.463.85zm.975.57l2.947 1.715.01.04-2.904 1.938-2.819-1.963 2.766-1.73zm.666-5.695l.678-.678.334 1.69-1.012-1.012zm.337-1.753l-1.047 1.047-1.047-1.047h2.094zm-4.24 10.069l2.4 1.669-3.147 2.1.746-3.769zM16.03 3.281v.969H15v-.969h1.031zm-4 0H13v.969h-.969v-.969zM9.306 14.137l-1.497 7.55H3.594l5.712-7.55z"  fill-rule="nonzero"/></svg>