<svg width="28" height="28" viewBox="0 0 28 28" xmlns="http://www.w3.org/2000/svg"><g fill-rule="nonzero"><path d="M9.181 3.308c1.43 0 2.59 1.164 2.59 2.6a2.6 2.6 0 0 1-1.648 2.421v.649l.706.001c.52 0 .942.423.942.945a.944.944 0 0 1-.872.943l-.07.002h-.706l.001 3.715c2.092-.315 3.06-1.778 3.06-4.66 0-.522.42-.945.94-.945.521 0 .943.423.943.945 0 4.277-2.04 6.616-5.886 6.616S3.296 14.2 3.296 9.924c0-.522.421-.945.941-.945s.942.423.942.945c0 2.882.968 4.345 3.06 4.66V10.87h-.706a.943.943 0 0 1-.941-.945c0-.498.384-.906.871-.942l.07-.003.706-.001v-.649a2.6 2.6 0 0 1-1.647-2.422c0-1.435 1.159-2.599 2.59-2.599zm0 1.89a.708.708 0 0 0-.706.71c0 .39.316.708.706.708.39 0 .706-.317.706-.709a.708.708 0 0 0-.706-.709z"/><path d="M18.863 9.297c5.047 0 9.137 4.188 9.137 9.351C28 23.812 23.91 28 18.863 28c-5.048 0-9.138-4.188-9.138-9.352 0-5.163 4.09-9.351 9.138-9.351zm0 2.746c-3.558 0-6.444 2.956-6.444 6.605 0 3.65 2.886 6.606 6.444 6.606 3.557 0 6.444-2.956 6.444-6.606s-2.887-6.605-6.444-6.605z"/><path d="M20.874 0H3.32A3.327 3.327 0 0 0 0 3.333v17.618a3.327 3.327 0 0 0 3.32 3.334h10.374c-2.095-4.492-2.095-7.998 0-10.518 2.095-2.52 5.596-2.811 10.5-.874v-9.56A3.327 3.327 0 0 0 20.875 0zm0 2.38a.95.95 0 0 1 .949.953v7.119c-4.31-.175-7.272.591-8.885 2.299-1.613 1.707-2.282 4.758-2.008 9.153H3.32a.95.95 0 0 1-.948-.953V3.333a.95.95 0 0 1 .949-.952h17.553z"/><path d="M22.07 15.988a1.048 1.048 0 0 1 1.498 0c.39.397.412 1.026.065 1.448l-.065.073-4.823 4.895c-.39.397-1.01.419-1.426.066l-.072-.066-2.812-2.854a1.087 1.087 0 0 1 0-1.521 1.048 1.048 0 0 1 1.427-.066l.071.066 2.063 2.094 4.074-4.135z"/></g></svg>