<svg width="18" height="18" viewBox="0 0 18 18" xmlns="http://www.w3.org/2000/svg"><g fill-rule="nonzero"><path d="M4.217 7.034h5.061c.563 0 .844.281.844.843 0 .563-.281.844-.844.844h-5.06c-.563 0-.844-.281-.844-.844 0-.562.281-.843.843-.843zm0 3.374H7.03c.562 0 .844.281.844.843 0 .563-.282.844-.844.844H4.217c-.562 0-.843-.281-.843-.844 0-.562.281-.843.843-.843zM15.745 4.74v1.203a.821.821 0 0 1-1.63 0v-.675c0-.62-.504-1.124-1.125-1.124H9.616a1.63 1.63 0 0 0 .135-.473 1.226 1.226 0 0 0 0-.292c.004-.301-.066-.598-.203-.866a1.946 1.946 0 0 0-.55-.731 1.957 1.957 0 0 0-2.25 0c-.264.188-.477.44-.619.73a1.856 1.856 0 0 0-.225.867 1.226 1.226 0 0 0 0 .292c.021.164.067.323.135.473H2.755c-.62 0-1.124.503-1.124 1.124v9.965c0 .62.503 1.124 1.124 1.124h2.047a.821.821 0 0 1 0 1.642H2.25A2.25 2.25 0 0 1 0 15.75V4.762a2.25 2.25 0 0 1 2.25-2.25h2.372a.652.652 0 0 1 0-.157 3.374 3.374 0 0 1 6.433 0 .652.652 0 0 1 0 .158h2.441a2.25 2.25 0 0 1 2.25 2.227z"/><path d="M18 14.928v1.014h-3.52V18h-1.076v-2.058H9.04v-1.014h1.41v-2.62h2.953V10.96h-2.03A13.91 13.91 0 0 1 9.7 13.047l-.7-.926a8.831 8.831 0 0 0 1.258-1.457c.372-.538.68-1.093.924-1.664l1.075.315c-.06.138-.159.345-.294.62h5.58v1.025H14.48v1.349h2.8v1.004h-2.8v1.615H18zm-6.463-1.615v1.615h1.867v-1.615h-1.867z"/></g></svg>