<svg width="18" height="18" viewBox="0 0 18 18" xmlns="http://www.w3.org/2000/svg"><g fill-rule="nonzero"><path d="M1.974 16.668V18H16.04v-1.332H5.876zM16.795 0a1.174 1.174 0 0 1 1.174 1.176v10.948c0 .649-.526 1.176-1.174 1.176H1.174A1.175 1.175 0 0 1 0 12.124V1.176A1.174 1.174 0 0 1 1.174.001h15.62zm-.603 1.456H1.75a.352.352 0 0 0-.351.352v9.734c0 .194.157.351.351.351h14.442c.197 0 .35-.162.35-.351V1.808a.351.351 0 0 0-.35-.352zM12.415 14.593h-6.62v1.252h6.621z"/><path d="M8.998 2.802a.59.59 0 0 1 .514.301l3.521 6.102.046.094a.593.593 0 0 1-.56.803H5.477a.6.6 0 0 1-.515-.898l3.522-6.1a.59.59 0 0 1 .515-.302zm0 5.072a.506.506 0 1 0 0 1.012.506.506 0 0 0 0-1.012zm0-3.564a.528.528 0 0 0-.526.526v2.132c.001.29.236.525.526.526a.528.528 0 0 0 .524-.526V4.836a.528.528 0 0 0-.524-.526z"/></g></svg>