<svg width="18" height="18" viewBox="0 0 18 18" xmlns="http://www.w3.org/2000/svg"><path d="M2.036 1.677a.679.679 0 0 0-.679.679v4.07c0 .375.304.68.679.68h4.07a.679.679 0 0 0 .68-.68v-4.07a.679.679 0 0 0-.68-.679h-4.07zm0-1.357h4.07c1.125 0 2.036.911 2.036 2.036v4.07a2.036 2.036 0 0 1-2.035 2.036H2.036A2.036 2.036 0 0 1 0 6.427V2.356C0 1.23.911.32 2.036.32zm0 10.856a.679.679 0 0 0-.679.679v4.07c0 .376.304.68.679.68h4.07a.679.679 0 0 0 .68-.68v-4.07a.679.679 0 0 0-.68-.679h-4.07zm0-1.357h4.07c1.125 0 2.036.912 2.036 2.036v4.07a2.036 2.036 0 0 1-2.035 2.036H2.036A2.036 2.036 0 0 1 0 15.926v-4.071c0-1.124.911-2.036 2.036-2.036zm9.499 1.357a.679.679 0 0 0-.679.679v4.07c0 .376.304.68.679.68h4.07a.679.679 0 0 0 .68-.68v-4.07a.679.679 0 0 0-.68-.679h-4.07zm0-1.357h4.07c1.125 0 2.036.912 2.036 2.036v4.07a2.036 2.036 0 0 1-2.035 2.036h-4.071a2.036 2.036 0 0 1-2.036-2.035v-4.071c0-1.124.911-2.036 2.036-2.036zm-.8-5.889a.679.679 0 0 0 0 .96l2.374 2.375a.679.679 0 0 0 .96 0l2.375-2.374a.679.679 0 0 0 0-.96L14.07 1.555a.679.679 0 0 0-.96 0L10.734 3.93zm-.96-.959L12.15.596a2.036 2.036 0 0 1 2.879 0l2.375 2.375a2.036 2.036 0 0 1 0 2.879l-2.375 2.375a2.036 2.036 0 0 1-2.879 0L9.775 5.85a2.036 2.036 0 0 1 0-2.879z" fill-rule="nonzero"/></svg>