<svg width="18" height="16" viewBox="0 0 18 16" xmlns="http://www.w3.org/2000/svg"><path d="M17.367 14.589H15.02a.766.766 0 0 0-.12-.364l-5.635-8.66c.102-.058.205-.114.307-.171a109.037 109.037 0 0 0 2.2-1.254c.347-.206.685-.404 1.003-.596.316-.194.617-.376.894-.544.277-.169.528-.332.75-.47.119-.073.226-.144.326-.208.027.094.055.19.086.284.051.149.115.294.194.43.154.273.385.504.585.728.103.11.195.221.283.327.088.106.174.202.256.29.083.088.164.166.234.235a3.985 3.985 0 0 0 .325.282l.05.037a.33.33 0 0 0 .091.05v8.188c0 .117.085.211.19.211s.19-.096.19-.211V4.869a.439.439 0 0 0 .091-.259l.002-.067c0-.043 0-.105-.003-.182a4.805 4.805 0 0 0-.018-.276c-.01-.106-.021-.223-.039-.35a8.624 8.624 0 0 0-.065-.402c-.026-.142-.054-.29-.077-.447-.05-.314-.086-.655-.197-.954a2.308 2.308 0 0 0-.205-.424 4.83 4.83 0 0 0-.53-.707 4.02 4.02 0 0 0-.548-.494 2.818 2.818 0 0 0-.436-.266l-.016-.008c-.02-.008-.042-.017-.062-.021-.223-.057-.446.098-.499.348l-.003.02a.556.556 0 0 0-.01.055c-.008.047-.02.115-.029.2l-.007.082-.18.08c-.171.079-.379.17-.614.282-.236.112-.503.235-.793.376l-.932.457a107.19 107.19 0 0 0-2.136 1.097c-.374.196-.752.4-1.13.603-.378.206-.755.412-1.124.618-.37.205-.733.411-1.083.615a61.56 61.56 0 0 0-2.648 1.614c-.11.073-.214.14-.31.202l-.263.177c-.158.106-.28.192-.365.25l-.128.09c-.248.175-.363.526-.259.845.12.37.485.56.816.425l.142-.059c.093-.039.228-.094.4-.17l.286-.124c.103-.046.214-.098.332-.15a54.618 54.618 0 0 0 1.728-.827c.33-.164.677-.34 1.033-.527.108-.055.216-.114.327-.17v8.164H.633c-.35 0-.633.318-.633.708 0 .39.283.707.633.707h16.734c.35 0 .633-.317.633-.707 0-.389-.283-.704-.633-.704zm-8.427 0V7.473l4.634 7.116H8.94zm8.102-.78c-.106 0-.19.094-.19.212 0 .117.084.211.19.211.105 0 .19-.095.19-.211 0-.116-.086-.212-.19-.212zM3.875 9.34c0-.119-.085-.212-.19-.212-.106 0-.19.094-.19.211 0 .118.084.212.19.212.105 0 .19-.094.19-.212zm-2 5.248h3.62l1.354-1.983h.19v-.707H5.09c.109.239.172.511.172.8 0 .97-.703 1.755-1.568 1.755-.867 0-1.568-.786-1.568-1.756 0-.288.062-.558.172-.8H.335v.708h.19l1.35 1.983zm1.82-.762c.607 0 1.092-.55 1.092-1.229 0-.305-.109-.55-.259-.799l-.842-1.603-.89 1.697c-.032.05-.062.106-.087.162l-.012.022h.002c-.069.162-.104.34-.104.519.002.68.494 1.23 1.1 1.23zm0-1.74c.252 0 .456.23.456.51 0 .282-.204.511-.456.511-.251 0-.455-.23-.455-.512-.002-.28.204-.509.455-.509z" fill-rule="nonzero"/></svg>