<svg width="18" height="16" viewBox="0 0 18 16" xmlns="http://www.w3.org/2000/svg"><g fill-rule="nonzero"><path d="M16.275 15.45h-6.9c-.975 0-1.725-.975-1.725-2.325v-10.8C7.65 1.05 8.4 0 9.375 0h6.9C17.25 0 18 .975 18 2.325V13.2c0 1.275-.75 2.25-1.725 2.25zM9.375 1.5c-.075.075-.225.375-.225.825V13.2c0 .45.225.75.3.825h6.825c.075 0 .225-.3.225-.825V2.325c0-.45-.225-.75-.3-.825H9.375z"/><path d="M14.775 5.1h-3.9c-.45 0-.75-.3-.75-.75s.3-.75.75-.75h3.9c.45 0 .75.3.75.75s-.3.75-.75.75zM8.4 8.475H4.5c-.45 0-.75-.3-.75-.75s.3-.75.75-.75h3.9c.45 0 .75.3.75.75s-.3.75-.75.75zM6.15 3H4.2c-.45 0-.75-.3-.75-.75s.3-.75.75-.75h1.95c.45 0 .75.3.75.75S6.6 3 6.15 3zm0 10.95H4.2c-.45 0-.75-.3-.75-.75s.3-.75.75-.75h1.95c.45 0 .75.3.75.75s-.3.75-.75.75z"/><path d="M6.15 13.95c-.45 0-.75-.3-.75-.75V2.25c0-.45.3-.75.75-.75s.75.3.75.75V13.2c0 .45-.3.75-.75.75zm8.625-5.475h-3.9c-.45 0-.75-.3-.75-.75s.3-.75.75-.75h3.9c.45 0 .75.3.75.75s-.3.75-.75.75zm0 3.375h-3.9c-.45 0-.75-.3-.75-.75s.3-.75.75-.75h3.9c.45 0 .75.3.75.75s-.3.75-.75.75zM3.375 4.5H1.05C.45 4.5 0 3.975 0 3.375V1.05C0 .45.45 0 1.05 0h2.325C3.975 0 4.5.45 4.5 1.05v2.325c0 .6-.525 1.125-1.125 1.125zM1.5 3H3V1.5H1.5V3zm1.875 6.975H1.05C.45 9.975 0 9.45 0 8.925V6.6c0-.6.45-1.125 1.05-1.125h2.325c.6 0 1.125.525 1.125 1.05V8.85c0 .6-.525 1.125-1.125 1.125zM1.5 8.475H3v-1.5H1.5v1.5zm1.875 6.975H1.05C.45 15.45 0 15 0 14.4v-2.325c0-.6.45-1.05 1.05-1.05h2.325c.6-.075 1.125.45 1.125 1.05V14.4c0 .6-.525 1.05-1.125 1.05zM1.5 13.95H3v-1.5H1.5v1.5z"/></g></svg>