<svg width="18" height="19" viewBox="0 0 18 19" xmlns="http://www.w3.org/2000/svg"><g fill-rule="nonzero"><path d="M12.756 15.932l-.198.104a.374.374 0 0 1-.544-.391l.041-.256a1 1 0 0 0-.279-.866l-.175-.176a.38.38 0 0 1 .211-.644l.225-.035a1 1 0 0 0 .744-.546l.105-.213a.374.374 0 0 1 .67 0l.106.213a1 1 0 0 0 .744.546l.225.035a.38.38 0 0 1 .211.644l-.175.176a1 1 0 0 0-.279.866l.041.256a.374.374 0 0 1-.544.39l-.198-.103a1 1 0 0 0-.931 0z"/><path d="M13.214 19a4.47 4.47 0 0 1-3.182-1.318A4.47 4.47 0 0 1 8.714 14.5a4.47 4.47 0 0 1 1.318-3.182A4.47 4.47 0 0 1 13.214 10a4.47 4.47 0 0 1 3.182 1.318 4.47 4.47 0 0 1 1.318 3.182 4.47 4.47 0 0 1-1.318 3.182A4.47 4.47 0 0 1 13.214 19zm0-7.714A3.218 3.218 0 0 0 10 14.5a3.218 3.218 0 0 0 3.214 3.214A3.218 3.218 0 0 0 16.43 14.5a3.218 3.218 0 0 0-3.215-3.214zM8.357 18h-6.71A1.658 1.658 0 0 1 0 16.335V2.951c0-.918.74-1.665 1.647-1.665h3.335a.643.643 0 0 1 0 1.285H1.647c-.2 0-.361.17-.361.38v13.384c0 .21.162.38.361.38h6.71a.643.643 0 0 1 0 1.285zm7.714-7.714a.643.643 0 0 1-.642-.643V2.95c0-.21-.163-.38-.362-.38h-3.335a.643.643 0 0 1 0-1.285h3.335c.908 0 1.647.747 1.647 1.665v6.692a.643.643 0 0 1-.643.643z"/><path d="M13.5 5.786H5.143a.645.645 0 0 1-.643-.643c0-.354.29-.643.643-.643H13.5c.354 0 .643.29.643.643 0 .353-.29.643-.643.643zm-2.553 2.357H5.143A.645.645 0 0 1 4.5 7.5c0-.354.29-.643.643-.643h5.804c.354 0 .643.29.643.643 0 .354-.289.643-.643.643zM7.714 10.5h-2.57a.645.645 0 0 1-.643-.643c0-.353.289-.643.642-.643h2.571c.354 0 .643.29.643.643 0 .354-.29.643-.643.643zM6.43 12.857H5.143a.645.645 0 0 1-.643-.643c0-.353.29-.643.643-.643h1.286c.353 0 .642.29.642.643 0 .354-.289.643-.642.643zM9.864 2.571H6.85a.806.806 0 0 1-.803-.803c0-.442.361-.804.803-.804h3.014c.442 0 .803.362.803.804a.806.806 0 0 1-.803.803z"/><path d="M8.84 1.607h-.965a.806.806 0 0 1-.804-.803c0-.442.362-.804.804-.804h.964c.442 0 .804.362.804.804a.806.806 0 0 1-.804.803zM3.655 5.786h-.884c-.11 0-.2-.09-.2-.201V4.7c0-.11.09-.201.2-.201h.884c.11 0 .201.09.201.2v.885c0 .11-.09.2-.2.2zm0 2.357h-.884c-.11 0-.2-.09-.2-.201v-.884c0-.11.09-.2.2-.2h.884c.11 0 .201.09.201.2v.884c0 .11-.09.2-.2.2zm0 2.357h-.884c-.11 0-.2-.09-.2-.2v-.885c0-.11.09-.2.2-.2h.884c.11 0 .201.09.201.2v.884c0 .11-.09.201-.2.201zm0 2.357h-.884c-.11 0-.2-.09-.2-.2v-.885c0-.11.09-.2.2-.2h.884c.11 0 .201.09.201.2v.884c0 .11-.09.201-.2.201z"/></g></svg>