<svg width="18" height="19" viewBox="0 0 18 19" xmlns="http://www.w3.org/2000/svg"><path d="M17.687 9.428a.697.697 0 0 0-.659-.06l-.552.235V3.411a.699.699 0 0 0-.698-.698H6.934V.698A.699.699 0 0 0 6.236 0h-4.17a.699.699 0 0 0-.698.698v8.84l-.396-.17A.697.697 0 0 0 0 10.01v7.527c0 .385.313.698.698.698h16.604a.699.699 0 0 0 .698-.698V10.01a.686.686 0 0 0-.313-.582zm-2.608.77l-1.783.76V4.109h1.783v6.089zM11.9 11.39v.163l-1.783.76V4.11H11.9v7.282zM8.72 4.109v8.357c0 .074.013.146.035.214l-1.818-.774V4.109H8.72zM2.768 1.396H5.54v9.917l-2.773-1.18V1.395zm13.839 15.44H1.396v-5.77L8.73 14.19a.702.702 0 0 0 .546 0l6.68-2.847a.716.716 0 0 0 .183-.078l.463-.197v5.769h.004z" fill-rule="nonzero"/></svg>