<svg width="28" height="28" viewBox="0 0 28 28" xmlns="http://www.w3.org/2000/svg"><g fill-rule="nonzero"><path d="M22.249 13.958l-5.327 1.988-1.882 5.22a.528.528 0 0 0 .294.707.525.525 0 0 0 .406-.008l5.226-2 1.984-5.207a.528.528 0 0 0-.294-.708.532.532 0 0 0-.407.008zm-2.213 4.371l.436.435-.705.703-.435-.435-2.564 1.121 1.121-2.56-.423-.424.704-.703.423.423 2.566-1.12-1.123 2.56zm-1.763-2.111l-1.039 1.166.424.425 1.443 1.439.435.434 1.2-1.016-.596-.585-1.442-1.44-.213-.212-.212-.211z"/><path d="M20.736 0a3.505 3.505 0 0 1 3.503 3.38l.002.125v8.777l-.446-.36c-4.824-1.104-8.294-.642-10.412 1.385-3.112 2.98-2.754 6.372 1.138 10.303l.162.162.475.47H3.505a3.505 3.505 0 0 1-3.503-3.38L0 20.736V3.506A3.505 3.505 0 0 1 3.38.001L3.505 0h17.231zm0 2.703H3.506a.803.803 0 0 0-.8.725l-.003.077v17.231c0 .417.318.76.725.799l.077.003h6.805l-.036-.212c-.674-4.078-.073-7.171 1.821-9.26l.126-.135c1.33-1.394 4.369-1.657 9.115-.788l.202.032v-7.67a.803.803 0 0 0-.725-.798l-.077-.004z"/><path d="M6.451 13.599c.742 0 1.205.513 1.205 1.229 0 .649-.494 1.18-1.119 1.226l-.086.003h-.366c-.835 0-1.287-.486-1.287-1.23 0-.71.413-1.187 1.184-1.226l.103-.002h.366zm2.746-4.474c.759 0 1.204.505 1.204 1.23 0 .648-.493 1.18-1.118 1.225l-.086.003H6.085c-.835 0-1.287-.485-1.287-1.229 0-.711.413-1.188 1.184-1.226l.103-.003h3.112zm1.843-4.54c.662 0 1.207.553 1.207 1.228 0 .645-.492 1.174-1.12 1.225l-.087.004H5.832c-.67 0-1.207-.55-1.207-1.229 0-.645.492-1.174 1.118-1.225l.086-.004h5.211zM18.47 8.863c5.082 0 9.202 4.12 9.202 9.204 0 5.084-4.12 9.205-9.202 9.205s-9.202-4.121-9.202-9.205c0-5.083 4.12-9.204 9.202-9.204zm0 2.702a6.5 6.5 0 0 0-6.499 6.502 6.5 6.5 0 0 0 6.5 6.502 6.5 6.5 0 0 0 6.498-6.502 6.5 6.5 0 0 0-6.499-6.502z"/></g></svg>