<svg width="18" height="18" viewBox="0 0 18 18" xmlns="http://www.w3.org/2000/svg"><g fill-rule="nonzero"><path d="M4.217 7.034h5.061c.563 0 .844.281.844.843 0 .563-.281.844-.844.844h-5.06c-.563 0-.844-.281-.844-.844 0-.562.281-.843.843-.843zm0 3.374H7.03c.562 0 .844.281.844.843 0 .563-.282.844-.844.844H4.217c-.562 0-.843-.281-.843-.844 0-.562.281-.843.843-.843zM15.745 4.74v1.203a.821.821 0 0 1-1.63 0v-.675c0-.62-.504-1.124-1.125-1.124H9.616a1.63 1.63 0 0 0 .135-.473 1.226 1.226 0 0 0 0-.292c.004-.301-.066-.598-.203-.866a1.946 1.946 0 0 0-.55-.731 1.957 1.957 0 0 0-2.25 0c-.264.188-.477.44-.619.73a1.856 1.856 0 0 0-.225.867 1.226 1.226 0 0 0 0 .292c.021.164.067.323.135.473H2.755c-.62 0-1.124.503-1.124 1.124v9.965c0 .62.503 1.124 1.124 1.124h2.047a.821.821 0 0 1 0 1.642H2.25A2.25 2.25 0 0 1 0 15.75V4.762a2.25 2.25 0 0 1 2.25-2.25h2.372a.652.652 0 0 1 0-.157 3.374 3.374 0 0 1 6.433 0 .652.652 0 0 1 0 .158h2.441a2.25 2.25 0 0 1 2.25 2.227z"/><path d="M18 9v7.318c0 .378-.044.663-.132.856a.776.776 0 0 1-.448.41c-.212.082-.532.139-.96.173l-.76.07-.35-1.114.824-.05c.211-.021.359-.045.443-.072.085-.027.141-.074.17-.142.027-.067.041-.185.041-.354v-1.176h-4.232a5.447 5.447 0 0 1-.522 1.566c-.243.463-.586.968-1.03 1.515L10 17.31c.457-.513.793-.955 1.008-1.327a3.88 3.88 0 0 0 .448-1.292c.085-.49.127-1.164.127-2.022V9H18zm-1.172 2.493v-1.439h-4.073v1.44h4.073zm0 2.392v-1.368h-4.073v.284c0 .385-.01.746-.032 1.084h4.105z"/></g></svg>