<svg width="16" height="18" viewBox="0 0 16 18" xmlns="http://www.w3.org/2000/svg"><path d="M7.851 0L0 2.499v8.022C0 14.645 7.851 18 7.851 18s7.851-3.355 7.851-7.48V2.498L7.852 0zm6.538 10.505c0 .643-.314 1.356-.928 2.113-.572.698-1.385 1.413-2.412 2.126a24.786 24.786 0 0 1-3.198 1.84 24.786 24.786 0 0 1-3.197-1.84c-1.028-.713-1.841-1.428-2.413-2.126-.614-.757-.928-1.456-.928-2.113V3.411l6.538-2.07 6.538 2.07v7.094zM5.282 5.767c0 1.17.8 2.199 1.927 2.483v5.638c0 .357.286.628.628.628a.634.634 0 0 0 .628-.628v-1.683h1.1a.625.625 0 0 0 .628-.629.625.625 0 0 0-.628-.628h-1.1V8.25a2.55 2.55 0 0 0 1.84-3.111A2.522 2.522 0 0 0 7.21 3.282a2.569 2.569 0 0 0-1.927 2.485zm3.854 0c0 .713-.586 1.299-1.299 1.299a1.304 1.304 0 0 1-1.299-1.299c0-.713.586-1.299 1.3-1.299.726 0 1.298.584 1.298 1.3z" fill-rule="nonzero"/></svg>