<svg width="18" height="15" viewBox="0 0 18 15" xmlns="http://www.w3.org/2000/svg"><g fill-rule="nonzero"><path d="M14.217 8.956a.87.87 0 0 0-.509-.378l-2.596-1.312-.41-.085h-.47V3.65c0-.352-.121-.65-.365-.888a1.195 1.195 0 0 0-.874-.365c-.343 0-.631.121-.875.365a1.21 1.21 0 0 0-.365.888v6.536l-2.48-.554h-.175c-.252 0-.455.076-.613.234l-.554.64 3.736 3.705c.194.212.456.32.79.32h4.29a1.073 1.073 0 0 0 1.082-.96l.555-3.822v-.145a1.045 1.045 0 0 0-.167-.649z"/><path d="M7.483.297a3.939 3.939 0 0 0-2.245 2.376c-.297.87-.288 1.839.095 2.75l.893-.366a2.923 2.923 0 0 1-.09-2.019 2.982 2.982 0 0 1 1.717-1.862c1.532-.626 3.295.095 3.93 1.61a2.92 2.92 0 0 1-.117 2.515l.893.365c.491-.982.572-2.159.113-3.245C11.833.423 9.507-.528 7.483.297zM14.1 1.84a5.365 5.365 0 0 1 0 4.174c-.036.081-.072.167-.108.243l.893.366c.036-.081.076-.163.108-.244a6.3 6.3 0 0 0 0-4.904l-.893.365zm-10.295.248l-.893-.365a6.264 6.264 0 0 0 .1 4.651l.892-.365a5.334 5.334 0 0 1-.1-3.921zM1.479 1.14L.586.775A8.631 8.631 0 0 0 0 3.863a8.719 8.719 0 0 0 .686 3.461l.892-.365a7.802 7.802 0 0 1-.1-5.819zM17.314.523l-.892.365a7.797 7.797 0 0 1 0 6.072c-.036.08-.072.166-.108.248l.892.365.108-.248A8.802 8.802 0 0 0 18 3.985a8.597 8.597 0 0 0-.685-3.462z"/></g></svg>