<svg width="18" height="18" viewBox="0 0 18 18" xmlns="http://www.w3.org/2000/svg"><path d="M6.884 14.865v.493c0 .254-.166.413-.422.413h-3.78c-.248 0-.422-.165-.422-.413 0-1.26 0-2.522.008-3.783 0-.247.166-.406.415-.414h.492c.262 0 .422.16.422.421v2.77c0 .072.014.093.087.093h2.771c.262 0 .422.16.429.42zM1.127 4.962v-3.86C1.127.493 1.62 0 2.23 0h5.686a1.095 1.095 0 0 1 1.106 1.101c0 1.276 0 2.543.009 3.809 0 .682-.474 1.154-1.159 1.154h-5.58c-.302.01-.596-.1-.815-.307a1.118 1.118 0 0 1-.351-.795zm1.126-.421c0 .124.034.135.133.135H7.72c.089 0 .122-.012.133-.113V1.425c0-.102-.033-.124-.122-.124H2.375c-.1 0-.122.034-.122.136v3.104zm9.322-.993h2.771c.073 0 .087.02.087.093v2.77c0 .26.16.42.421.42h.493c.248-.008.415-.167.415-.414.008-1.26.008-2.522.008-3.783 0-.247-.175-.413-.422-.413h-3.78c-.256 0-.422.16-.422.413v.493c.007.26.167.42.429.42zm-1.434 3.86v-.192a.556.556 0 0 0-.555-.554H.556A.556.556 0 0 0 0 7.216v.193c0 .304.25.554.555.554h9.03c.306 0 .556-.25.556-.554zm-.05 2.63h5.685a1.095 1.095 0 0 1 1.106 1.101c0 1.275 0 2.542.009 3.808 0 .682-.474 1.154-1.159 1.154h-5.58c-.302.01-.596-.1-.815-.307a1.119 1.119 0 0 1-.351-.795v-3.86c0-.608.494-1.101 1.105-1.102zm.022 4.54c0 .124.033.135.132.135h5.333c.09 0 .122-.011.133-.113v-3.138c0-.102-.033-.124-.122-.124h-5.355c-.1 0-.121.034-.121.137v3.103zm7.332 2.121h-9.03a.556.556 0 0 0-.556.554v.193c0 .305.25.554.555.554h9.03c.306 0 .556-.25.556-.554v-.193a.556.556 0 0 0-.555-.554z" fill-rule="nonzero"/></svg>