<svg width="18" height="18" viewBox="0 0 18 18" xmlns="http://www.w3.org/2000/svg"><path d="M13.853 0c1.008 0 1.838.79 1.911 1.8l.004.071.001.072v5.25A6.098 6.098 0 0 1 18 11.926C18 15.279 15.32 18 12.013 18a5.935 5.935 0 0 1-4.483-2.05H1.917a1.928 1.928 0 0 1-1.912-1.8l-.004-.07L0 14.008V1.943C0 .922.779.08 1.776.005l.07-.004.07-.001h11.937zm-1.84 7.296c-2.514 0-4.554 2.072-4.554 4.629 0 2.557 2.04 4.628 4.554 4.628 2.514 0 4.554-2.071 4.554-4.628s-2.04-4.629-4.554-4.629zM3.528 1.498H1.917a.438.438 0 0 0-.428.362l-.006.042-.001.04v12.066c0 .219.155.402.354.438l.04.005.04.002h4.652a6.128 6.128 0 0 1-.542-2.528c0-3.355 2.68-6.075 5.987-6.075.806 0 1.574.16 2.275.454V1.943a.441.441 0 0 0-.394-.443l-.041-.002h-1.83l.016.069c.024.123.036.248.036.376 0 1.02-.779 1.862-1.776 1.937l-.07.004-.07.001H5.393c-1.06 0-1.917-.87-1.917-1.942 0-.128.012-.253.036-.376l.015-.07zm8.391 7.226c.379 0 .69.288.726.655l.003.07v2.31l1.264.95a.723.723 0 0 1 .243.942l-.039.063a.731.731 0 0 1-.946.242l-.064-.038-1.59-1.165a.725.725 0 0 1-.321-.524l-.005-.08v-2.7c0-.4.327-.725.729-.725zm-1.76-7.226H5.393a.44.44 0 0 0-.435.445c0 .218.155.401.354.437l.04.006.04.001h4.765a.44.44 0 0 0 .435-.444.44.44 0 0 0-.435-.445z" fill-rule="nonzero"/></svg>