<svg width="18" height="18" viewBox="0 0 18 18" xmlns="http://www.w3.org/2000/svg"><path d="M15.731 0c1.201 0 2.184.974 2.264 2.206l.005.162v10.106c0 1.253-.933 2.28-2.114 2.363l-.155.005h-4.184l2.46 1.712a.811.811 0 0 1 .209 1.094.737.737 0 0 1-1.005.248l-.044-.029-4.118-2.866-4.118 2.866a.735.735 0 0 1-1.019-.175l-.03-.044a.813.813 0 0 1 .167-1.063l.043-.031 2.458-1.712H2.269c-1.201 0-2.184-.974-2.264-2.206L0 12.474V2.368C0 1.115.933.088 2.114.005L2.269 0H15.73zm0 1.579H2.27c-.383 0-.7.297-.75.682l-.006.107v10.106c0 .4.284.73.653.782l.103.007H15.73c.383 0 .7-.297.75-.682l.006-.107V2.368c0-.436-.338-.79-.756-.79zM7.536 7.377c.418 0 .757.338.757.756v2.735a.756.756 0 0 1-1.513 0V8.133c0-.418.339-.756.756-.756zm6.05-.789c.418 0 .757.339.757.756v3.523a.756.756 0 1 1-1.513 0V7.344c0-.417.34-.756.757-.756zm-3.024 1.549c.417 0 .756.338.756.756v1.972a.756.756 0 0 1-1.513 0V8.893c0-.418.339-.756.757-.756zm-6.05 1.062c.417 0 .755.34.755.757v.856a.756.756 0 1 1-1.512 0v-.856c0-.418.338-.757.756-.757zm9.694-5.618a.811.811 0 0 1-.22 1.124l-1.998 1.35a3.001 3.001 0 0 1-2.841.281 2.756 2.756 0 0 0-2.771.377L4.974 7.817a.746.746 0 0 1-1.067-.149.81.81 0 0 1 .156-1.111l2.056-1.62a2.816 2.816 0 0 1 2.832-.385c.954.4 2.045.293 2.902-.287l1.312-.885a.75.75 0 0 1 1.04.201z" fill-rule="nonzero"/></svg>