<svg width="28" height="28" viewBox="0 0 28 28" xmlns="http://www.w3.org/2000/svg"><path d="M7.35 0c-.097.593-.192 1.189-.29 1.782-.165.981-.337 1.963-.498 2.945a.204.204 0 0 0 .066.172c.617.47 1.231.944 1.862 1.402a5808.06 5808.06 0 0 0 9.042 6.53c.364.264.557.559.368.982-.014.035.007.091.028.132l3.85 7.826c.05.1.113.122.225.122.772-.003 1.543-.003 2.315-.003h.203v1.032h-.537v3.422H28v1H1.6V28H0v-4.52h.765v-.2c0-4.225.003-8.447-.007-12.672 0-.33-.127-.656-.19-.985C.298 8.277.19 6.926.466 5.57 1.003 2.964 2.721 1.264 5.485.383 5.976.226 6.498.144 7.007.028 7.042.022 7.074.01 7.105 0h.246zM1.593 26.338c.056.003.084.006.112.006 1.922 0 3.848 0 5.77.003.108 0 .147-.025.168-.125.277-1.368.56-2.732.845-4.1l1.953-9.447c.085-.414.12-.446.597-.47.017 0 .031-.007.063-.016v-1.49h.915l-6.092-4.4a5.35 5.35 0 0 0-.066.046 5203.38 5203.38 0 0 1-4.798 3.88c-.084.07-.123.135-.123.242C.94 14.742.94 19.02.94 23.295v.173h.652v2.87zm11.009-14.146c.108.015.21.031.315.044.19.025.323.144.362.316.108.5.217.995.33 1.49.848 3.742 1.7 7.484 2.549 11.226.08.358.165.712.242 1.063h.554v-3.415h-.624V21.88h1.399c-.032-.355-.06-.694-.088-1.032l-.364-4.254c-.064-.75-.127-1.502-.197-2.252a.217.217 0 0 0-.098-.15c-.144-.088-.312-.141-.449-.235a339.926 339.926 0 0 1-2.483-1.791c-.477-.342-.95-.687-1.445-1.045-.003.373-.003.722-.003 1.07zM8.31 26.106c1.221-.534 2.403-1.051 3.61-1.581-1.004-.521-1.972-1.026-2.964-1.54a782.147 782.147 0 0 1-.645 3.12zm9.74-10.884a.055.055 0 0 1-.025.006c.007.034.014.069.025.103.21.734.42 1.465.627 2.2.4 1.404.8 2.813 1.193 4.218.028.103.073.141.2.141.368-.01.736-.003 1.104-.003.042 0 .088-.006.151-.013a7298.373 7298.373 0 0 1-3.275-6.652zm-2.67 11.116c-.048-.032-.066-.047-.087-.06-.87-.452-1.736-.906-2.606-1.352-.06-.031-.168-.022-.231.006-1.02.44-2.038.888-3.055 1.333-.038.016-.073.038-.143.073h6.123zM9.8 22.743c.024.022.031.035.038.038.898.467 1.796.938 2.697 1.399.046.025.137.015.19-.007.49-.21.974-.423 1.462-.64.031-.015.06-.034.102-.059-.88-.436-1.74-.866-2.606-1.292a.226.226 0 0 0-.144-.013c-.575.188-1.15.38-1.74.574zm9.637-.866c-.586-2.06-1.164-4.105-1.743-6.15-.01.003-.021.003-.032.006.176 2.048.355 4.096.53 6.144h1.245zm-5.562-1.088c-.032-.025-.05-.04-.067-.05-.6-.323-1.2-.646-1.806-.96-.05-.025-.144-.016-.196.01-.418.21-.828.43-1.242.642l-.526.277c.537.266 1.049.523 1.568.774.042.022.112.016.161 0 .221-.069.438-.144.66-.216.473-.157.953-.314 1.448-.477zm-3.598-2.606c.54.288 1.059.567 1.581.843a.175.175 0 0 0 .126 0c.48-.247.958-.498 1.435-.746-.007-.019-.01-.032-.018-.038-.301-.223-.6-.448-.905-.671-.13-.097-.259-.257-.396-.264-.147-.009-.308.123-.463.198-.445.223-.89.445-1.36.678zm2.823-2.055l-1.361-1.716-.978 1.133c.459.338.904.671 1.353.994.028.022.102.025.137.01.277-.132.55-.27.849-.42zm-.698 5.756c.894.442 1.75.869 2.634 1.308-.158-.694-.309-1.352-.46-2.023-.722.235-1.43.467-2.174.715zm.873 2.685c.793.41 1.557.809 2.35 1.223l-.467-2.048c-.634.279-1.245.545-1.883.825zm-.73-5.173c.625.333 1.225.656 1.852.992-.136-.603-.266-1.164-.4-1.75l-1.451.758zm-3.033.926l1.782-.929c-.484-.26-.95-.508-1.431-.765-.12.568-.232 1.11-.351 1.694zm-.424 2.048c.61-.2 1.182-.389 1.788-.59-.519-.257-1.006-.498-1.511-.75-.095.452-.183.879-.277 1.34zm.978-4.733c.523-.26 1.007-.502 1.508-.75-.396-.295-.775-.57-1.171-.865-.116.539-.225 1.06-.337 1.615zm2.704-4.416c-.224.257-.42.489-.62.721l1.065 1.346c.007-.004.014-.007.025-.01-.158-.677-.309-1.349-.47-2.057zm.761 3.35l-.828.41c.372.273.726.537 1.109.819-.099-.427-.186-.816-.28-1.23zm-1.771-3.118l.568-.659h-1.094c.182.223.347.43.526.659zm-.407.473c-.137-.172-.263-.332-.414-.52-.09.442-.175.846-.26 1.254.011.003.018.01.029.013.214-.248.424-.493.645-.747z" fill-rule="nonzero"/></svg>