<svg width="18" height="18" viewBox="0 0 18 18" xmlns="http://www.w3.org/2000/svg"><path d="M4.316 4.525c0-1.848 1.527-3.374 3.373-3.374 1.845 0 3.375 1.528 3.375 3.374 0 1.845-1.528 3.375-3.375 3.375-1.846 0-3.373-1.528-3.373-3.375zM2.159 16.548a1 1 0 0 1-1.015-.988v-.028c-.001-3.373 2.614-6.17 5.924-6.49h.695c.768-.063 1.847-.256 2.413-.768l.257-.192c1.079-.896 1.719-2.167 1.719-3.566C12.152 2.029 10.112 0 7.57 0c-2.359 0-4.39 2.04-4.39 4.516 0 1.399.632 2.67 1.72 3.566l.32.192-.32.128C1.965 9.545 0 12.343 0 15.525a2.145 2.145 0 0 0 2.12 2.167h5.824c.192 0 .503-.191.503-.576 0-.448-.32-.577-.503-.577H2.16v.009zm14.692-2.542a1.88 1.88 0 0 0-1.655 1.902c0 .192.064.448.129.577l-.823.448-.32-.32c-.374-.257-.694-.374-1.08-.374-.32 0-.693.128-1.078.374-.129.128-.257.192-.32.32l-.769-.448c.055-.129.129-.375.129-.577 0-.96-.705-1.773-1.654-1.902 0-.128-.064-.374-.064-.64 0-.191.064-.448.064-.64.95-.128 1.654-.896 1.654-1.91 0-.192-.055-.448-.129-.577l.823-.448c.055.063.183.192.32.257.374.256.694.374 1.014.374.32 0 .631-.128 1.015-.374.128-.129.256-.192.32-.257l.822.448a1.683 1.683 0 0 0-.128.577c0 .96.705 1.773 1.664 1.91 0 .129.055.375.055.64.084.192.01.449.01.64zm.896-1.59c-.063-.32-.32-.577-.577-.577h-.063a1 1 0 0 1-1.014-1.014c0-.129.054-.32.054-.375.129-.32 0-.694-.256-.896l-1.143-.64h-.311c-.183 0-.448.054-.577.257-.128.128-.502.448-.768.448-.256 0-.64-.32-.822-.448a.811.811 0 0 0-.577-.257c-.128 0-.192 0-.257.054l-1.205.64a.807.807 0 0 0-.257.897s.054.191.054.374a.998.998 0 0 1-.979 1.014h-.102c-.256 0-.502.257-.576.577 0 .063-.128.503-.128.95 0 .375.054.897.128.952.063.32.32.576.576.576h.064a1 1 0 0 1 1.014 1.015c0 .128-.055.32-.055.374-.128.32 0 .694.257.897l1.143.64c.128-.064.191-.064.32-.064.191 0 .448-.054.576-.256.128-.129.503-.503.823-.503.256 0 .694.32.822.503.129.128.32.256.577.256.128 0 .192 0 .32-.054l1.143-.64a.807.807 0 0 0 .256-.897s-.054-.182-.054-.374a1 1 0 0 1 1.014-1.014h.054c.257 0 .503-.257.577-.577 0 0 .128-.503.128-.95-.125-.312-.179-.824-.179-.889zm-4.644 1.773a.83.83 0 0 1-.823-.823.83.83 0 0 1 .823-.822.83.83 0 0 1 .823.822c.008.449-.385.823-.823.823zm.311-2.542c-1.216-.256-2.296.823-2.04 2.094.13.694.695 1.27 1.4 1.399a1.721 1.721 0 0 0 2.04-2.039 1.754 1.754 0 0 0-1.4-1.454z" fill-rule="nonzero"/></svg>