<svg width="18" height="19" viewBox="0 0 18 19" xmlns="http://www.w3.org/2000/svg"><g fill-rule="nonzero"><path d="M5.249 4.5c.415 0 .75-.334.75-.749V.75a.75.75 0 0 0-1.5 0v3a.75.75 0 0 0 .75.75zm3.75 0c.414 0 .75-.334.75-.749V.75a.749.749 0 1 0-1.5 0v3a.75.75 0 0 0 .75.75zm-2.25-3.062h.75v1.5h-.75v-1.5zm3.752 0h.75v1.5h-.75v-1.5zm7.496 14.351V3.607a2.248 2.248 0 0 0-2.249-2.25H14.25v1.5h1.5c.413 0 .752.336.752.749v12.183a.754.754 0 0 1-.753.751H2.25a.752.752 0 0 1-.75-.75h-.011l.011-12.183a.75.75 0 0 1 .75-.75h1.5v-1.5h-1.5A2.25 2.25 0 0 0 0 3.607V15.79a2.248 2.248 0 0 0 2.249 2.25h13.5a2.243 2.243 0 0 0 2.24-2.138c0-.006.008-.014.008-.02v-.067c0-.01.003-.017.003-.026h-.003v.001zM12.75 4.501a.75.75 0 0 0 .75-.75V.75a.75.75 0 0 0-1.5 0v3c0 .416.332.75.75.75zM4.487 7.512h9c.41 0 .75-.336.75-.75a.751.751 0 0 0-.75-.75h-9a.749.749 0 1 0 0 1.5zM8.639 9.66l-4.152.054a.75.75 0 0 0 0 1.5l4.152-.055c.41 0 .75-.336.75-.75a.752.752 0 0 0-.75-.749zm-1.56 3.9H4.487a.75.75 0 1 0 0 1.5h2.592c.41 0 .75-.339.75-.753a.75.75 0 0 0-.75-.747z"/><path d="M13.453 12.296c.903 0 1.637.667 1.637 1.487v.725c0 .284-.245.515-.546.515H9.635c-.3 0-.545-.23-.545-.515v-.725c0-.82.734-1.487 1.636-1.487h2.727zm0 .545h-2.727c-.601 0-1.09.423-1.09.942v.692l4.908.003v-.695c0-.52-.489-.942-1.09-.942zM12.088 8.682c.94 0 1.704.765 1.704 1.705 0 .94-.764 1.704-1.704 1.704s-1.705-.764-1.705-1.704.765-1.705 1.705-1.705zm0 .546c-.64 0-1.16.52-1.16 1.159a1.16 1.16 0 0 0 2.318 0c0-.64-.52-1.16-1.158-1.16z"/></g></svg>