<svg width="18" height="18" viewBox="0 0 18 18" xmlns="http://www.w3.org/2000/svg"><g fill-rule="evenodd"><path d="M13.902 0c.768 0 1.39.622 1.39 1.39V8.12c0 .43-4.462-.524-5.99 1.33-1.193 1.448.525 5.843.188 5.843h-8.1A1.39 1.39 0 0 1 0 13.902V1.39C0 .622.622 0 1.39 0h12.512zM3.475 1.39H1.39v12.512h2.085V1.39zm2.78 5.56V1.39h-1.39v12.512h3.72c-.333-2.418-.182-4.004.451-4.757.634-.753 2.255-1.276 4.866-1.568V1.39h-2.085v5.56l-2.78-.623-2.781.624zm0 4.171h2.781v1.39h-2.78v-1.39zm0-2.78h3.643v1.39H6.256v-1.39zm4.171-6.95h-2.78v3.824l1.39-.312 1.39.312V1.39z" fill-rule="nonzero"/><path d="M12.903 6.956c2.815 0 5.097 2.316 5.097 5.173 0 2.858-2.282 5.174-5.097 5.174-2.816 0-5.098-2.316-5.098-5.174 0-2.857 2.282-5.173 5.098-5.173zm0 1.519c-1.989 0-3.6 1.636-3.6 3.654 0 2.019 1.611 3.655 3.6 3.655 1.988 0 3.6-1.636 3.6-3.655 0-2.018-1.612-3.654-3.6-3.654z" fill-rule="nonzero"/><path d="M12.35 9.448c0 .31.247.562.553.562a.556.556 0 0 0 .546-.47l.003-.034c.33.071.638.205.91.388l.045-.052a.557.557 0 0 0-.005.788.556.556 0 0 0 .723.05c.171.268.296.57.363.892l.057-.004a.557.557 0 0 0-.553.561c0 .29.217.53.495.559a2.658 2.658 0 0 1-.26.72l-.096.161-.04-.032a.56.56 0 0 0-.711.07.558.558 0 0 0-.03.763 2.56 2.56 0 0 1-.898.383l.004.058a.557.557 0 0 0-.553-.562c-.286 0-.521.22-.55.502a2.58 2.58 0 0 1-.91-.387l-.045.053a.557.557 0 0 0 .006-.789.556.556 0 0 0-.723-.05 2.647 2.647 0 0 1-.364-.892l-.057.005a.557.557 0 0 0 .554-.562.559.559 0 0 0-.495-.558 2.64 2.64 0 0 1 .26-.72l.095-.163.04.034a.56.56 0 0 0 .711-.07.558.558 0 0 0 .03-.763 2.56 2.56 0 0 1 .899-.383l-.005-.058zm.553 1.502a1.17 1.17 0 0 0-1.162 1.18c0 .65.52 1.178 1.162 1.178a1.17 1.17 0 0 0 1.162-1.179 1.17 1.17 0 0 0-1.162-1.179z"/></g></svg>