<svg width="28" height="28" viewBox="0 0 28 28" xmlns="http://www.w3.org/2000/svg"><path d="M2.212 19.217V2.99c0-.408.326-.742.73-.742h21.945c.401 0 .73.334.73.742v7.98h2.212V2.99c0-1.648-1.32-2.99-2.942-2.99H2.94C1.318.003 0 1.342 0 2.99v16.227c0 1.647 1.321 2.99 2.942 2.99h7.101v-2.248H2.94a.736.736 0 0 1-.727-.742zm-1.084 4.207h8.912v2.248H1.128v-2.248zm26.869-6.462l-.161-.481a8.678 8.678 0 0 0-1.682-2.951l-.331-.383h-2.63l-1.318-2.318-.493-.1a8.54 8.54 0 0 0-3.353 0l-.493.1-1.317 2.318h-2.63l-.332.383a8.709 8.709 0 0 0-1.68 2.95l-.162.482 1.318 2.32-1.318 2.318.161.481a8.678 8.678 0 0 0 1.681 2.952l.332.382h2.63l1.317 2.318.493.1c.55.112 1.116.167 1.678.167a8.67 8.67 0 0 0 1.679-.167l.493-.1 1.317-2.318h2.63l.332-.382a8.709 8.709 0 0 0 1.68-2.952L28 21.6l-1.318-2.319 1.315-2.319zm-2.427 4.856a6.522 6.522 0 0 1-.768 1.349H21.92l-1.441 2.537a6.44 6.44 0 0 1-1.533 0l-1.441-2.537h-2.882a6.44 6.44 0 0 1-.768-1.349l1.44-2.54-1.44-2.54c.202-.479.458-.932.768-1.35h2.882l1.44-2.536a6.44 6.44 0 0 1 1.534 0l1.44 2.537h2.883c.31.417.565.867.768 1.349l-1.441 2.54 1.44 2.54zm-5.86-6.114c-1.94 0-3.517 1.602-3.517 3.574 0 1.972 1.577 3.574 3.518 3.574 1.94 0 3.517-1.602 3.517-3.574 0-1.969-1.577-3.574-3.517-3.574zm0 4.903c-.72 0-1.305-.594-1.305-1.326 0-.732.585-1.326 1.306-1.326.72 0 1.305.594 1.305 1.326 0 .732-.585 1.326-1.305 1.326z" fill-rule="nonzero"/></svg>