<svg width="18" height="17" viewBox="0 0 18 17" xmlns="http://www.w3.org/2000/svg"><path d="M3.533 0H1.307C.585 0 0 .585 0 1.307v2.226C0 4.254.585 4.84 1.307 4.84h2.226c.721-.001 1.306-.586 1.307-1.307V1.307C4.839.585 4.254 0 3.533 0zm.302 3.533a.302.302 0 0 1-.302.302H1.307a.302.302 0 0 1-.302-.302V1.307c0-.167.135-.302.302-.302h2.226c.167 0 .302.135.302.302v2.226zM3.533 5.95H1.307C.585 5.951 0 6.536 0 7.257v2.227c0 .72.585 1.305 1.307 1.306h2.226c.721 0 1.306-.585 1.307-1.306V7.257c-.001-.721-.586-1.306-1.307-1.307zm.302 3.534a.302.302 0 0 1-.302.301H1.307a.302.302 0 0 1-.302-.301V7.257c0-.167.135-.302.302-.302h2.226c.167 0 .302.135.302.302v2.227zm-.302 2.354H1.307c-.722 0-1.306.585-1.307 1.306v2.227c0 .72.585 1.305 1.307 1.306h2.226c.721 0 1.306-.585 1.307-1.306v-2.227c-.001-.721-.586-1.306-1.307-1.306zm.302 3.533a.302.302 0 0 1-.302.301H1.307a.302.302 0 0 1-.302-.301v-2.227c0-.166.135-.301.302-.301h2.226c.167 0 .302.135.302.301v2.227zM16.693 0H7.03c-.72 0-1.305.585-1.306 1.307v2.226c0 .721.585 1.306 1.306 1.307h9.664C17.415 4.839 18 4.254 18 3.533V1.307C18 .585 17.415 0 16.693 0zm.302 3.533a.302.302 0 0 1-.302.302H7.03a.302.302 0 0 1-.301-.302V1.307c0-.167.135-.302.301-.302h9.664c.167 0 .302.135.302.302v2.226zm-.302 2.417H7.03c-.72.001-1.305.586-1.306 1.307v2.227c0 .72.585 1.305 1.306 1.306h9.664c.722 0 1.306-.585 1.307-1.306V7.257c0-.721-.585-1.306-1.307-1.307zm.302 3.534a.302.302 0 0 1-.302.301H7.03a.302.302 0 0 1-.301-.301V7.257c0-.167.135-.302.301-.302h9.664c.167 0 .302.135.302.302v2.227zm-.302 2.354H7.03c-.72 0-1.305.585-1.306 1.306v2.227c0 .72.585 1.305 1.306 1.306h9.664c.722 0 1.306-.585 1.307-1.306v-2.227c0-.721-.585-1.306-1.307-1.306zm.302 3.533a.302.302 0 0 1-.302.301H7.03a.302.302 0 0 1-.301-.301v-2.227c0-.166.135-.301.301-.301h9.664c.167 0 .302.135.302.301v2.227z" fill-rule="nonzero"/></svg>