<svg width="18" height="18" viewBox="0 0 18 18" xmlns="http://www.w3.org/2000/svg"><path d="M17.605 5.115l-3.882 3.883 3.94 3.942a1.115 1.115 0 0 1 0 1.576l-3.152 3.154a1.114 1.114 0 0 1-1.576 0l-3.94-3.942-2.364 2.365C4.536 18.19.61 17.363.61 17.363s-.81-3.898 1.291-6l2.365-2.365-3.94-3.941a1.115 1.115 0 0 1 0-1.577L3.478.327a1.114 1.114 0 0 1 1.576 0l3.94 3.941L12.877.384c.113-.151.302-.274.602-.274.522-.01 1.216-.026 1.696-.036.34 0 .74.162.903.325l1.468 1.463c.183.183.367.446.367.979 0 1.268.105 2.002-.308 2.274zm-7.297 8.35l1.182-1.182a.186.186 0 0 1 .263 0l.263.263a.186.186 0 0 1 0 .262l-1.182 1.183 1.05 1.051 1.182-1.182a.186.186 0 0 1 .263 0l.263.262a.186.186 0 0 1 0 .263l-1.182 1.183.788.788c.29.29.76.29 1.05 0l2.102-2.102c.29-.29.29-.761 0-1.051l-3.415-3.417-3.152 3.154.525.525zm-8.81 1.528c.801.75 1.14 1.044 1.666 1.527.652-.02 1.734-.27 2.153-.69l-3.152-3.153c-.44.441-.675 1.631-.667 2.316zM4.792 1.64a.743.743 0 0 0-1.05 0L1.64 3.743c-.29.29-.29.76 0 1.05l.788.79L3.61 4.4a.186.186 0 0 1 .263 0l.262.262a.186.186 0 0 1 0 .263L2.953 6.108l1.05 1.05 1.183-1.182a.186.186 0 0 1 .263 0l.262.263a.186.186 0 0 1 0 .263L4.53 7.684l.526.526 3.152-3.153L4.792 1.64zm8.29 1.86c-.257-.257-.386-.468-.386-.893l.013-.477-9.756 9.759 3.152 3.153 9.77-9.774-.244.005c-.658 0-.956-.187-1.195-.425L13.082 3.5zm2.707-1.321c-.427-.427-.945-.6-1.159-.386-.213.213-.04.732.386 1.158.427.427.946.6 1.159.386.213-.213.04-.732-.386-1.158z" fill-rule="nonzero"/></svg>