<svg width="28" height="28" viewBox="0 0 28 28" xmlns="http://www.w3.org/2000/svg"><g fill-rule="nonzero"><path d="M8.426 6.118a1.338 1.338 0 0 1 1.868.288c.363.487.694.956.994 1.408.241.364.47.728.684 1.09a1.953 1.953 0 0 1-.113 2.156l-.544.73a.079.079 0 0 0-.007.082c.25.486.62.984 1.117 1.49.507.52 1.021.922 1.54 1.21.028.014.06.012.084-.007l.706-.549a1.84 1.84 0 0 1 2.106-.115c.341.212.695.444 1.059.697a30.4 30.4 0 0 1 1.36 1.002 1.41 1.41 0 0 1 .28 1.917l-.023.032-.008.011c-1.312 1.719-2.67 2.562-4.083 2.417-1.817-.186-4.081-1.695-5.943-3.6l-.084-.085c-1.787-1.856-3.118-3.987-3.384-5.912-.21-1.533.613-2.949 2.342-4.226l.049-.036zm.769 1.267l-.047.035c-1.276.964-1.793 1.875-1.673 2.753.211 1.537 1.39 3.425 2.977 5.072l.08.082c1.643 1.68 3.664 3.028 5.059 3.17.807.082 1.719-.473 2.73-1.772v-.002l-.05-.04c-.34-.262-.686-.517-1.037-.764l-.13-.09a23.125 23.125 0 0 0-.996-.655.413.413 0 0 0-.473.026l-.705.549a1.502 1.502 0 0 1-1.656.131c-.649-.36-1.275-.849-1.877-1.465-.594-.608-1.054-1.224-1.376-1.851a1.595 1.595 0 0 1 .138-1.676l.544-.73a.437.437 0 0 0 .026-.483c-.206-.347-.421-.689-.645-1.025a29.538 29.538 0 0 0-.809-1.156l-.08-.11zM17.843 4c.648 0 .883.07 1.12.198.237.13.423.32.55.563l.013.027c.116.23.178.471.18 1.083v1.726c0 .664-.067.904-.193 1.146a1.337 1.337 0 0 1-.55.563l-.026.015c-.225.117-.46.181-1.059.184h-2.74c-.649 0-.884-.07-1.12-.199a1.337 1.337 0 0 1-.55-.563l-.015-.027c-.115-.23-.177-.471-.18-1.082V5.907c0-.663.068-.904.195-1.146.126-.243.312-.432.55-.563l.026-.014c.224-.118.46-.182 1.057-.184h2.742zm4.016 1.075c.089.112.138.252.138.396v2.564a.62.62 0 0 1-.612.626.603.603 0 0 1-.388-.141l-.6-.502c-.254-.215-.4-.53-.4-.864v-.8c0-.334.147-.651.4-.863l.6-.503a.603.603 0 0 1 .862.087zm-3.96.413h-2.855c-.07 0-.14.004-.21.008l-.02.002a1.768 1.768 0 0 0-.05.004l-.02.003-.004.033a3.428 3.428 0 0 0-.012.311v1.844c.001.084.003.155.007.214l.002.022.004.05.003.022.032.003c.07.007.17.012.304.013h2.763c.164 0 .282-.006.36-.013L18.237 8l.003-.034c.008-.07.012-.173.013-.31v-1.75a4.13 4.13 0 0 0-.013-.368l-.003-.034-.034-.004a3.495 3.495 0 0 0-.304-.012z"/><path d="M24.47 0H3.53C1.58 0 0 1.65 0 3.684v15.72c0 2.034 1.58 3.684 3.53 3.684h20.94c1.95 0 3.53-1.65 3.53-3.685V3.684C28 1.65 26.42 0 24.47 0zM3.53 2.456h20.94c.65 0 1.177.55 1.177 1.228v15.72c0 .678-.527 1.227-1.176 1.227H3.529c-.65 0-1.176-.55-1.176-1.228V3.684c0-.678.527-1.228 1.176-1.228z"/><path d="M13.424 20.838c.37-.258.846-.274 1.23-.049l.075.049 7.059 4.912c.54.376.686 1.139.326 1.703-.346.54-1.03.703-1.563.385l-.069-.044-6.406-4.459-6.406 4.459c-.518.36-1.21.235-1.585-.273l-.047-.068a1.264 1.264 0 0 1 .261-1.654l.066-.049 7.059-4.912z"/></g></svg>