<svg width="28" height="28" viewBox="0 0 28 28" xmlns="http://www.w3.org/2000/svg"><g fill-rule="nonzero"><path d="M24.47 0H3.53C1.58 0 0 1.65 0 3.684v15.72c0 2.034 1.58 3.684 3.53 3.684h20.94c1.95 0 3.53-1.65 3.53-3.685V3.684C28 1.65 26.42 0 24.47 0zM3.53 2.456h20.94c.65 0 1.177.55 1.177 1.228v15.72c0 .678-.527 1.227-1.176 1.227H3.529c-.65 0-1.176-.55-1.176-1.228V3.684c0-.678.527-1.228 1.176-1.228z"/><path d="M13.424 20.838c.37-.258.846-.274 1.23-.049l.075.049 7.059 4.912c.54.376.686 1.139.326 1.703-.346.54-1.03.703-1.563.385l-.069-.044-6.406-4.459-6.406 4.459c-.518.36-1.21.235-1.585-.273l-.047-.068a1.264 1.264 0 0 1 .261-1.654l.066-.049 7.059-4.912zM14 19.014c-2.444 0-5.514-3.557-7.426-6.57a.827.827 0 0 1 0-.888C8.486 8.543 11.556 4.991 14 4.991c2.445 0 5.549 3.552 7.461 6.565a.827.827 0 0 1 0 .888c-1.912 3.013-5.016 6.57-7.461 6.57zm0-11.985c-2.024 0-3.898 2.281-5.627 4.971 1.73 2.69 3.603 5.012 5.627 5.012 2.024 0 3.898-2.322 5.627-5.012-1.73-2.69-3.603-4.971-5.627-4.971zm0 7.975c-1.882 0-2.983-1.715-2.983-3.004S12.197 8.987 14 8.987c1.802 0 2.994 1.724 2.994 3.013S15.882 15.004 14 15.004zm0-1.67A1.34 1.34 0 0 0 15.345 12 1.34 1.34 0 0 0 14 10.667 1.34 1.34 0 0 0 12.655 12 1.34 1.34 0 0 0 14 13.333z"/></g></svg>