<svg width="18" height="18" viewBox="0 0 18 18" xmlns="http://www.w3.org/2000/svg"><g fill-rule="nonzero"><path d="M5.416 3.933a.86.86 0 0 1 1.201.185c.234.313.447.615.64.905.154.234.301.468.44.702.256.434.227.98-.073 1.385l-.35.469a.05.05 0 0 0-.005.053c.161.312.4.633.718.958.326.334.657.592.991.777.017.01.038.008.054-.004l.453-.353a1.183 1.183 0 0 1 1.354-.073c.22.136.447.285.68.447.292.202.584.417.876.645a.907.907 0 0 1 .18 1.232l-.015.02-.006.008c-.843 1.104-1.716 1.647-2.624 1.554-1.168-.12-2.624-1.09-3.821-2.315l-.054-.055C4.906 9.28 4.051 7.91 3.88 6.673c-.136-.986.394-1.896 1.505-2.717l.031-.023zm.495.814l-.03.023c-.82.62-1.153 1.205-1.075 1.77.135.988.893 2.202 1.913 3.26l.052.053c1.055 1.08 2.355 1.946 3.252 2.038.518.053 1.105-.304 1.754-1.14h.001l-.033-.026a18.64 18.64 0 0 0-.666-.491l-.083-.058c-.21-.146-.424-.286-.64-.421a.265.265 0 0 0-.305.016l-.453.353a.966.966 0 0 1-1.064.085 5.296 5.296 0 0 1-1.208-.942 4.97 4.97 0 0 1-.884-1.19 1.025 1.025 0 0 1 .089-1.078l.35-.47a.28.28 0 0 0 .016-.31c-.132-.222-.27-.442-.414-.658a18.989 18.989 0 0 0-.52-.744l-.052-.07zm5.56-2.176c.416 0 .567.045.72.128a.86.86 0 0 1 .353.362l.009.017c.074.148.114.303.116.696v1.11c0 .427-.044.581-.125.737a.86.86 0 0 1-.354.362l-.016.009c-.145.076-.296.117-.68.118H9.73c-.417 0-.567-.044-.72-.127a.86.86 0 0 1-.353-.362l-.01-.018c-.073-.147-.114-.303-.115-.695v-1.11c0-.427.043-.582.125-.737a.86.86 0 0 1 .353-.362l.017-.01c.144-.075.296-.116.68-.118h1.762zm2.58.692a.409.409 0 0 1 .09.254v1.648a.398.398 0 0 1-.394.403.388.388 0 0 1-.249-.091l-.385-.323a.724.724 0 0 1-.257-.555v-.514c0-.215.094-.42.257-.555l.385-.323a.387.387 0 0 1 .554.056zm-2.544.265H9.67c-.045 0-.09.002-.135.005l-.013.001-.032.003-.013.002-.002.021a2.203 2.203 0 0 0-.008.2v1.186c0 .053.002.1.004.137l.002.014.003.033.001.013.021.003c.045.004.109.007.195.007h1.776c.106 0 .182-.003.232-.007l.022-.003.002-.022c.005-.046.007-.111.008-.2V3.797c0-.079-.002-.158-.008-.237l-.002-.022-.022-.002a2.247 2.247 0 0 0-.195-.008z"/><path d="M15.731 0H2.27C1.016 0 0 1.06 0 2.368v10.106c0 1.308 1.016 2.368 2.269 2.368H15.73c1.253 0 2.269-1.06 2.269-2.368V2.368C18 1.06 16.984 0 15.731 0zM2.27 1.579H15.73c.418 0 .756.353.756.79v10.105c0 .436-.338.79-.756.79H2.27c-.418 0-.756-.354-.756-.79V2.368c0-.436.338-.79.756-.79z"/><path d="M8.63 13.396a.73.73 0 0 1 .79-.031l.048.03 4.538 3.159a.811.811 0 0 1 .21 1.094.737.737 0 0 1-1.005.248l-.044-.029-4.118-2.866-4.118 2.866a.735.735 0 0 1-1.019-.175l-.03-.044a.813.813 0 0 1 .167-1.063l.043-.031 4.537-3.158z"/></g></svg>