<svg width="18" height="15" viewBox="0 0 18 15" xmlns="http://www.w3.org/2000/svg"><g fill-rule="nonzero"><path d="M8.89 8.142a3.892 3.892 0 0 1-3.888-3.888A3.892 3.892 0 0 1 8.89.365a3.892 3.892 0 0 1 3.889 3.889A3.892 3.892 0 0 1 8.89 8.142zm0-6.864a2.976 2.976 0 1 0 .002 5.952 2.976 2.976 0 0 0-.002-5.952z"/><path d="M14.997 14.175a.452.452 0 0 1-.456-.456A5.438 5.438 0 0 0 9.11 8.288a5.438 5.438 0 0 0-5.432 5.431c0 .256-.2.456-.456.456a.452.452 0 0 1-.456-.456A6.354 6.354 0 0 1 9.11 7.375a6.354 6.354 0 0 1 6.343 6.344c0 .256-.2.456-.456.456zm-9.94-7.73a3.23 3.23 0 0 1-3.231-3.223A3.222 3.222 0 0 1 7.1.74l-.584.694a2.327 2.327 0 0 0-1.47-.52 2.306 2.306 0 0 0-2.309 2.31c0 1.277 1.04 2.308 2.319 2.308v.913z"/><path d="M.456 11.346A.452.452 0 0 1 0 10.889a5.236 5.236 0 0 1 5.23-5.23c.256 0 .457.201.457.457 0 .255-.201.456-.457.456a4.32 4.32 0 0 0-4.317 4.317c0 .256-.201.457-.457.457zM12.952 6.572v-.913a2.306 2.306 0 0 0 2.31-2.31 2.306 2.306 0 0 0-2.31-2.308c-.547 0-1.058.182-1.47.52L10.9.858a3.151 3.151 0 0 1 2.053-.74 3.222 3.222 0 0 1 3.222 3.223 3.224 3.224 0 0 1-3.222 3.231z"/><path d="M17.544 11.346a.452.452 0 0 1-.457-.457 4.32 4.32 0 0 0-4.317-4.317.452.452 0 0 1-.457-.456c0-.256.201-.457.457-.457A5.236 5.236 0 0 1 18 10.89c0 .256-.2.457-.456.457z"/></g></svg>