<svg width="18" height="18" viewBox="0 0 18 18" xmlns="http://www.w3.org/2000/svg"><g fill-rule="evenodd"><path d="M2.05 0l9.178.001a.635.635 0 0 1 .468.194l.994 1.02c.281.287.525.534.771.78l1.66 1.646.45.45a.67.67 0 0 1 .184.352l.01.063v3.168l-.25-.104c-2.776-1.153-4.81-1.296-6.105-.457l-.077.051-.06.043-.097.076-.042.033-.084.071c-1.048.937-1.935 2.83-1.724 6.093l.482.605.074.257c.01.038.019.07.025.099l.012.054c.025.127.029.23-.018.294l-.02.021-.008.005.018.176.038.343.042.35.053.42H2.042c-1.1.002-1.997-.873-2.04-1.97L0 14.055V2.05A2.05 2.05 0 0 1 1.97 0L2.05 0zm8.54 1.617H2.047a.439.439 0 0 0-.44.39l-.002.044v12.002c0 .225.172.41.392.433l.045.002h5.435l-.027-.334-.004-.014c-.338-1.138-.503-1.937-.495-2.886l.003-.17c.042-1.448.549-2.73 1.645-3.78l.112-.104.1-.09c.05-.044.102-.088.155-.13l.127-.096C10.338 5.97 12 5.782 14.067 6.31l.093.025V5.206h-2.923a.65.65 0 0 1-.645-.599l-.002-.053V1.617zM4.924 9.14c.49 0 .795.338.795.808a.803.803 0 0 1-.738.807l-.057.002H3.76c-.551 0-.85-.32-.85-.809 0-.468.273-.781.782-.807l.068-.001h1.165zm1.812-2.943c.501 0 .795.332.795.808a.803.803 0 0 1-.738.807l-.057.002H3.76c-.551 0-.85-.32-.85-.809 0-.468.273-.781.782-.806l.068-.002h2.977zM7.953 3.21c.437 0 .796.365.796.809a.806.806 0 0 1-.739.806l-.057.002H3.592a.8.8 0 0 1-.796-.808c0-.425.324-.773.737-.806l.057-.003h4.363zm3.931-.983V3.9h1.666l-1.666-1.674z" fill-rule="nonzero"/><path d="M12.11 6.02c3.253 0 5.89 2.682 5.89 5.99 0 3.308-2.637 5.99-5.89 5.99-3.252 0-5.889-2.682-5.889-5.99 0-3.308 2.637-5.99 5.89-5.99zm0 1.445c-2.467 0-4.468 2.035-4.468 4.545s2.001 4.545 4.469 4.545c2.467 0 4.468-2.035 4.468-4.545s-2-4.545-4.468-4.545z" fill-rule="nonzero"/><path d="M11.35 9.448c0 .31.247.562.553.562a.556.556 0 0 0 .546-.47l.003-.034c.33.071.638.205.91.388l.045-.052a.557.557 0 0 0-.005.788.556.556 0 0 0 .723.05c.171.268.296.57.363.892l.057-.004a.557.557 0 0 0-.553.561c0 .29.217.53.495.559a2.658 2.658 0 0 1-.26.72l-.096.161-.04-.032a.56.56 0 0 0-.711.07.558.558 0 0 0-.03.763 2.56 2.56 0 0 1-.898.383l.004.058a.557.557 0 0 0-.553-.562c-.286 0-.521.22-.55.502a2.58 2.58 0 0 1-.91-.387l-.045.053a.557.557 0 0 0 .006-.789.556.556 0 0 0-.723-.05 2.647 2.647 0 0 1-.364-.892l-.057.005a.557.557 0 0 0 .554-.562.559.559 0 0 0-.495-.558 2.64 2.64 0 0 1 .26-.72l.095-.163.04.034a.56.56 0 0 0 .711-.07.558.558 0 0 0 .03-.763 2.56 2.56 0 0 1 .899-.383l-.005-.058zm.553 1.502a1.17 1.17 0 0 0-1.162 1.18c0 .65.52 1.178 1.162 1.178a1.17 1.17 0 0 0 1.162-1.179 1.17 1.17 0 0 0-1.162-1.179z"/></g></svg>