<svg width="17" height="17" viewBox="0 0 17 17" xmlns="http://www.w3.org/2000/svg"><path d="M12.423 9.807a2.203 2.203 0 1 0 2.118 2.204 2.563 2.563 0 0 0-.601-1.576 2.347 2.347 0 0 0-1.517-.628zm0 3.152a.948.948 0 0 1 0-1.89c.237.02.464.106.654.249a.876.876 0 0 1 .242.693.955.955 0 0 1-.896.915v.033zm4.328-2.053a1.778 1.778 0 0 1-1.275-2.204.373.373 0 0 0-.065-.255 4.354 4.354 0 0 0-1.452-.882.36.36 0 0 0-.248.065 1.615 1.615 0 0 1-1.275.569 1.72 1.72 0 0 1-1.275-.569.333.333 0 0 0-.242-.065 4.38 4.38 0 0 0-1.458.882.196.196 0 0 0-.059.255c.121.469.056.966-.183 1.387a1.576 1.576 0 0 1-1.092.817c-.059 0-.117.065-.183.19a4.453 4.453 0 0 0 0 1.765c0 .065.066.124.183.19.466.1.864.399 1.092.817.24.423.305.922.183 1.392a.399.399 0 0 0 .06.249 4.38 4.38 0 0 0 1.457.882h.066a.216.216 0 0 0 .176-.058 1.635 1.635 0 0 1 1.262-.57 1.7 1.7 0 0 1 1.308.583c.065.058.124.058.248.058a4.354 4.354 0 0 0 1.452-.882c.065-.066.124-.124.065-.249a1.687 1.687 0 0 1 1.19-2.197c.065 0 .124-.065.183-.19a4.224 4.224 0 0 0 0-1.764c0-.085-.059-.15-.118-.216zm-1.059 1.576a1.961 1.961 0 0 0-1.033.817c-.235.376-.3.834-.183 1.262a2.092 2.092 0 0 1-.909.503 1.68 1.68 0 0 0-1.216-.503 1.903 1.903 0 0 0-1.216.503 6.662 6.662 0 0 1-.909-.503 1.53 1.53 0 0 0-.183-1.262 1.903 1.903 0 0 0-1.033-.817 3.27 3.27 0 0 1 0-1.073c.44-.135.817-.425 1.06-.817.237-.376.303-.834.182-1.262.257-.24.57-.413.91-.503.32.326.758.508 1.215.503a1.903 1.903 0 0 0 1.216-.503c.317.142.62.31.91.503-.123.428-.056.887.182 1.262.23.382.586.671 1.007.817a3.27 3.27 0 0 1 0 1.073zm-13.868.758h1.21a3.733 3.733 0 0 1 3.642-3.786c.55 0 1.092.13 1.582.38a6.29 6.29 0 0 1 .785-1.007 1.308 1.308 0 0 1-.301-.19 3.19 3.19 0 0 0 1.066-2.328 3.034 3.034 0 1 0-6.068 0 2.955 2.955 0 0 0 1.033 2.328 5.035 5.035 0 0 0-2.949 4.603zm4.852-8.82A1.818 1.818 0 0 1 8.5 6.31a1.824 1.824 0 1 1-3.642 0 1.824 1.824 0 0 1 1.818-1.89zM15.777 0H1.217A1.242 1.242 0 0 0 0 1.268v12.6a1.242 1.242 0 0 0 1.216 1.262h6.369a7.846 7.846 0 0 1-.242-1.262H1.824a.654.654 0 0 1-.608-.654V1.896c0-.344.265-.63.608-.654H15.17c.343.024.609.31.608.654v5.545c.442.193.854.448 1.223.758v-6.93A1.242 1.242 0 0 0 15.777 0zm-4.25 4.42h3.034a.588.588 0 0 0 .608-.654.582.582 0 0 0-.608-.654h-3.034a.582.582 0 0 0-.601.654.588.588 0 0 0 .601.654zm0 2.517h1.824a.588.588 0 0 0 .608-.654.588.588 0 0 0-.608-.654h-1.824a.588.588 0 0 0-.601.654.582.582 0 0 0 .601.654z" fill-rule="nonzero"/></svg>