<svg width="28" height="28" viewBox="0 0 28 28" xmlns="http://www.w3.org/2000/svg"><g fill-rule="nonzero"><path d="M6.192 4.59c.586 0 1.069.468 1.136 1.073l.008.131v.24h10.29c.61 0 1.121.454 1.187 1.03l.007.125v3.6h-2.078V8.343H7.335v4.398h4.922c.61 0 1.12.455 1.186 1.03l.007.125c0 .634-.532 1.149-1.193 1.155H7.335v3.483c0 .615-.45 1.13-1.019 1.197l-.124.007c-.585 0-1.068-.468-1.135-1.073l-.008-.131V5.794c0-.671.513-1.204 1.143-1.204z"/><path d="M18.696 9.18c5.003 0 9.056 4.136 9.056 9.235 0 5.099-4.053 9.235-9.056 9.235-5.003 0-9.057-4.136-9.057-9.235 0-5.099 4.054-9.235 9.057-9.235zm0 2.712c-3.526 0-6.387 2.92-6.387 6.523 0 3.604 2.86 6.523 6.387 6.523 3.526 0 6.387-2.92 6.387-6.523 0-3.604-2.86-6.523-6.387-6.523z"/><path d="M20.69 0H3.29A3.291 3.291 0 0 0 0 3.291V20.69a3.291 3.291 0 0 0 3.291 3.292h10.282c-2.077-4.436-2.077-7.898 0-10.386 2.077-2.489 5.546-2.776 10.408-.863v-9.44A3.291 3.291 0 0 0 20.689 0zm0 2.351c.519 0 .94.421.94.94v7.03c-4.272-.172-7.207.584-8.806 2.27-1.6 1.686-2.263 4.699-1.99 9.039H3.29a.94.94 0 0 1-.94-.94V3.29c0-.519.421-.94.94-.94H20.69z"/><path d="M18.245 14.177a3.656 3.656 0 0 1 3.649 3.663c0 .712-.203 1.376-.553 1.938l1.723 1.73a.83.83 0 0 1 0 1.169.822.822 0 0 1-1.107.053l-.059-.053-1.723-1.729a3.622 3.622 0 0 1-1.93.554 3.656 3.656 0 0 1-3.65-3.662 3.656 3.656 0 0 1 3.65-3.663zm0 1.654c-1.105 0-2.001.9-2.001 2.009s.896 2.008 2 2.008c1.106 0 2.002-.899 2.002-2.008 0-1.11-.896-2.009-2.001-2.009z"/></g></svg>