<svg width="17" height="18" viewBox="0 0 17 18" xmlns="http://www.w3.org/2000/svg"><g fill-rule="nonzero"><path d="M13.054 7.668v.985c0 .038-.035.07-.076.07h-6.83c-.042 0-.077-.032-.077-.07v-.985c0-.039.035-.07.076-.07h6.83c.042 0 .077.031.077.07zM5.009 6.472c-.084 0-.152.063-.152.14v3.096c0 .077.068.14.152.14h9.107c.084 0 .152-.063.152-.14V6.613c0-.078-.068-.141-.152-.141H5.01zm9.107 5.346H5.01c-.084 0-.152-.063-.152-.14v-.845c0-.077.068-.14.152-.14h9.107c.084 0 .152.063.152.14v.845c0 .077-.068.14-.152.14zm0 1.97H5.01c-.084 0-.152-.063-.152-.14v-.845c0-.077.068-.14.152-.14h9.107c.084 0 .152.063.152.14v.844c0 .078-.068.141-.152.141z"/><path d="M17 4.872a2.17 2.17 0 0 0-.711-1.592L13.46.66A2.525 2.525 0 0 0 11.743 0H3.036c-.336 0-.607.251-.607.563v1.02c0 .077-.069.14-.152.14H.607c-.336 0-.607.252-.607.563v14.588C0 17.495.545 18 1.214 18h12.75c.336 0 .607-.251.607-.563v-.967c0-.077.069-.14.152-.14h1.67c.336 0 .607-.252.607-.564V4.872zm-4.121-3.149l2.265 2.097c.048.044.014.12-.053.12h-2.19c-.083 0-.151-.064-.151-.141V1.773c0-.062.082-.093.129-.05zm.326 15.151H1.821c-.335 0-.607-.251-.607-.562V3.13c0-.154.137-.281.304-.281h.835c.041 0 .076.032.076.07v12.847c0 .312.27.563.607.563H13.28c.042 0 .076.032.076.07v.335c0 .079-.068.14-.152.14zm2.277-1.67H3.946c-.167 0-.303-.127-.303-.282V1.407c0-.155.136-.281.303-.281h6.983c.335 0 .607.251.607.562V3.94c0 .621.544 1.126 1.214 1.126h2.429c.335 0 .607.251.607.563v9.294c0 .157-.137.282-.304.282z"/><g><path d="M5.858 5.063l.355-.194.063.36c-.163.08-.318.16-.467.24a4.13 4.13 0 0 1-.234.128l-.161-.29c.046-.02.074-.043.084-.069a.346.346 0 0 0 .014-.115v-.554h-.345v-.333h.345v-.307h-.207v-.234c-.068.082-.1.12-.095.116l-.237-.241c.114-.145.231-.308.352-.49.12-.18.208-.34.263-.476l.306.125a3.78 3.78 0 0 1-.135.28h.615v.337H5.56a4.186 4.186 0 0 1-.175.247h.869v.336h-.395v.307h.408v.333h-.408v.494zm2.115-1.918v.333h-.78v.544h.632v1.582H7.46v-.142h-.786v.142h-.342V4.022h.503V2.637l.358.013v.495h.78zm-1.3 1.978h.787v-.759h-.786v.759zM11.206 4.23v.354h-.696V5.65h-.385V4.584h-.79c-.021.16-.057.296-.107.41a1.22 1.22 0 0 1-.21.322c-.089.1-.211.214-.366.34l-.303-.298c.139-.111.245-.201.319-.271a.91.91 0 0 0 .175-.222.943.943 0 0 0 .096-.28h-.733v-.356h.76c.002-.035.003-.092.003-.17v-.497h-.627V3.2h.627v-.537l.392.013V3.2h.764v-.544l.385.017V3.2h.563v.362h-.563v.667h.696zm-1.081 0v-.668h-.764v.461c0 .096 0 .164-.003.206h.767z"/></g></g></svg>