<svg width="18" height="20" viewBox="0 0 18 20" xmlns="http://www.w3.org/2000/svg"><g fill-rule="nonzero"><path d="M1.54 16.973h.631v2.329H1.54v-2.329zm14.486 0h.632v2.329h-.632v-2.329zm-7.342 0h.632v2.329h-.632v-2.329zM2.487 0h.5v12h-.5V0zm3.79 0h.5v12h-.5V0zM17.156 15.957H7.848l3.885-12.793h1.537l3.886 12.793zm-8.67-.474h8.03L12.92 3.637h-.835L8.487 15.483z"/><path d="M6.829 13.031H2.71l2.22-2.776 2.098 2.517-.2.166v.093zm-3.461-.316H6.57l-1.634-1.96-1.57 1.96z"/><path d="M11.27 2.99h2.464v.822H11.27V2.99zM.987 12h6.316v4.092H.987V12zm8.114.486h6.823v.316H9.1v-.316zm.987-3.248h4.832v.316h-4.832v-.316zm.953-3.139h2.964v.316H11.04V6.1z"/><path d="M8.225 15.867l-.116-.294 7.757-3.076.116.294z"/><path d="M16.87 15.867l-7.826-3.076.115-.294 7.827 3.076z"/><path d="M9.025 12.508l5.816-3.253.154.275-5.816 3.254z"/><path d="M15.847 12.782l-5.836-3.249.154-.275L16 12.506z"/><path d="M9.985 9.273l3.777-3.134.202.243-3.777 3.134z"/><path d="M10.941 6.38l.199-.246 3.88 3.138-.2.245zM1.697 12.644H3.5v1.158H1.697zM0 15.71h18v1.776H0zM4.401 12.644h1.803v1.158H4.401zM6.513 2.928H2.395L4.616.153l2.097 2.516-.2.167v.092zm-3.461-.316h3.203L4.62.652l-1.57 1.96z"/><path d="M6.513 5.506H2.395l2.221-2.775 2.097 2.516-.2.167v.092zM3.052 5.19h3.203L4.62 3.23 3.05 5.19z"/><path d="M6.513 8H2.395l2.221-2.775 2.097 2.517-.2.167V8zm-3.461-.315h3.203L4.62 5.724 3.05 7.685z"/><path d="M6.513 10.537H2.395L4.616 7.76l2.097 2.517-.2.168v.092zm-3.461-.316h3.203L4.62 8.26l-1.57 1.96z"/></g></svg>