<svg width="18" height="18" viewBox="0 0 18 18" xmlns="http://www.w3.org/2000/svg"><g fill-rule="nonzero"><path d="M2.985 16.73l-1.856.02V1.122h13.314V9h1.128V.56c0-.309-.252-.56-.564-.56H.564A.563.563 0 0 0 0 .56v16.75c0 .31.253.562.564.562l2.42-.02V16.73h.001z"/><path d="M4.442 3.627H2.58c-.35 0-.635-.25-.635-.56 0-.31.284-.561.635-.561h1.862c.351 0 .635.25.635.56 0 .31-.284.561-.635.561zm2.709 2.3H2.58c-.35 0-.635-.251-.635-.561 0-.31.284-.56.635-.56H7.15c.35 0 .635.25.635.56 0 .31-.284.56-.635.56zM6.403 8.312H2.58c-.35 0-.635-.251-.635-.56 0-.31.284-.562.635-.562h3.823c.35 0 .635.251.635.561 0 .31-.284.56-.635.56zm1.323 2.355H2.58c-.35 0-.635-.25-.635-.56 0-.31.284-.561.635-.561h5.146c.35 0 .635.25.635.56 0 .31-.284.561-.635.561z"/><path d="M12.748 14.038l-.68-7.559h.568v-.402h-.048V4.805H11.5v.549h.458v.723H9.3v-.723h.457v.383h1.738V4.008H9.758v.797H8.714V6.48h.637l-.637 7.56H3.628v1.872h2.857V18h1.071v-2.09h2.776V18H11.4v-2.09h2.488V18h1.019v-2.09h2.72v-1.872h-4.879zm-2.604-9.54h.966v.74h-.966v-.74zm1.921 8.735c-.288-.38-.705-.944-1.143-1.539l.894-1.23.249 2.769zm-1.386-1.87c-.297-.404-.593-.81-.855-1.17h1.704l-.849 1.17zm1.193-1.165l.01.103-.11-.103h.1zm-.22-3.719l-.199-.004.218 2.374-.762-1.372.544-.998h.199zm-.643 0l-.324.597-.332-.597h.656zm-1.1.004l.554.994-.755 1.383.2-2.377zm.778 1.398l1.063 1.91H9.644l1.043-1.91zM9.569 10.51c.193.263.516.707.869 1.187L9.34 13.205l.228-2.696zm-.29 3.45l1.404-1.931.071.098c.4.542.72.974.952 1.282.139.184.249.327.324.424.043.054.076.092.099.122l.007.084H9.272l.008-.08z"/></g></svg>