<svg width="28" height="28" viewBox="0 0 28 28" xmlns="http://www.w3.org/2000/svg"><path d="M21.291 25.557c-.05 0-.09-.002-.119-.003H6.005c-1.016 0-1.6-.428-1.912-.787-.683-.787-.628-1.853-.597-2.149v-9.122h1.623v9.233l-.007.048c-.02.162-.021.667.21.929.049.055.198.224.683.224h15.232l.02.002c.054.002.565.011.887-.293.215-.203.323-.538.323-.997V13.49h1.624v9.153c0 1.164-.463 1.836-.851 2.196-.699.646-1.584.719-1.949.719zm-16.984-11.3H1.812a.812.812 0 0 1-.539-1.419L13.255 2.205a.812.812 0 0 1 1.071-.006l12.148 10.55a.812.812 0 0 1-.509 1.425l-2.662.076h-.024a.812.812 0 0 1-.023-1.623l.582-.017L13.8 3.892l-9.85 8.742h.357a.812.812 0 0 1 0 1.624zm6.766 10.493a.685.685 0 0 1-.685-.685v-5.73c0-.124.031-.633.508-1.117.579-.588 1.56-.886 2.916-.886 1.335 0 2.305.302 2.883.898.488.503.52 1.033.519 1.173v5.64a.685.685 0 0 1-1.37 0v-5.631c-.005-.03-.034-.155-.204-.293-.192-.156-.685-.417-1.828-.417-1.327 0-1.798.334-1.94.477a.438.438 0 0 0-.114.182v5.704a.685.685 0 0 1-.685.685z" fill-rule="nonzero"/></svg>